<svg width="129" height="33" viewBox="-30 -30 159 63" fill="none" xmlns="http://www.w3.org/2000/svg">
	<path d="M2 31.5559H1.24243V30.7983L1.24243 25.0367L1.24243 24.2791H2H7.00408L7.00408 19.2783V13.5199V12.7623H7.76165H12.7625L12.7625 7.75827V7.0007H13.52L18.5208 7.0007V1.99989V1.24232H19.2784H25.0401H30.7984H36.5601H42.3185L48.0801 1.24232H48.8377L48.8377 1.99989V7.0007H53.8385H54.5961V7.75827V12.7623H59.6002H60.3577V13.5199V19.2783V24.2791H63.6415H65.3585H68.6455V19.2783V13.5199V12.7623H69.4031H74.4039V7.75827V7.0007L75.1615 7.0007H80.1656V1.99989V1.24232H80.9231H86.6815H92.4432H98.2016L103.96 1.24232H109.722H110.479V1.99989V7.0007H115.48H116.238V7.75827V12.7623H121.242H121.999V13.5199V19.2783V24.2791H127H127.758V25.0367V30.7983V31.5559H127H121.242H115.48H109.722H103.96L98.2016 31.5559H92.4432H86.6815H80.9231H75.1615L69.4031 31.5559H65.3585H63.6415H59.6002H53.8385H48.0801L42.3185 31.5559H36.5601H30.7984H25.0401H19.2784L13.52 31.5559H7.76165H2Z" fill="black" stroke="#33E6BF" stroke-width="1.51514"/>
	<path d="M19.2779 25.0366H13.5195V19.2782H19.2779V25.0366Z" fill="#33E6BF"/>
	<path d="M42.3189 13.5195H36.5605V7.76115L42.3189 7.76115V13.5195Z" fill="#33E6BF"/>
	<path d="M36.5572 19.2778H30.7988V13.5194H36.5572V19.2778Z" fill="#33E6BF"/>
	<path d="M25.0357 19.2778H19.2773V13.5194H25.0357V19.2778Z" fill="#33E6BF"/>
	<path d="M30.7974 13.5195H25.0391V7.76115L30.7974 7.76115V13.5195Z" fill="#33E6BF"/>
	<path d="M48.0767 19.2778H42.3184V13.5194H48.0767V19.2778Z" fill="#33E6BF"/>
	<path d="M53.8385 25.0366H48.0801V19.2782H53.8385V25.0366Z" fill="#33E6BF"/>
	<path d="M115.481 25.0366H109.723V19.2782H115.481V25.0366Z" fill="#33E6BF"/>
	<path d="M92.44 13.5195H86.6816V7.76115L92.44 7.76115V13.5195Z" fill="#33E6BF"/>
	<path d="M98.2017 19.2778H92.4434V13.5194H98.2017V19.2778Z" fill="#33E6BF"/>
	<path d="M109.719 19.2778H103.961V13.5194H109.719V19.2778Z" fill="#33E6BF"/>
	<path d="M103.96 13.5195H98.2012V7.76115L103.96 7.76115V13.5195Z" fill="#33E6BF"/>
	<path d="M86.6822 19.2778H80.9238V13.5194H86.6822V19.2778Z" fill="#33E6BF"/>
	<path d="M80.9185 25.0366H75.1602V19.2782H80.9185V25.0366Z" fill="#33E6BF"/>
</svg>
