<svg xmlns="http://www.w3.org/2000/svg">
    <symbol id="l-8" viewBox="0 0 164 521">
        <path d="M21.7 0.0898438V189.82L132.09 199.02L147.04 0.0898438H21.71H21.7ZM94.14 176.02H72.0999V51.0798H102.18L94.1299 176.02H94.14Z" />
        <path d="M163.13 520.97V184.05L0.0800781 167.71L8.00006 520.97H163.13ZM56.1301 208.55H88.6801L98.6801 440.42H54.2401L56.1301 208.55Z" />
    </symbol>
    <symbol id="l-9" viewBox="0 0 203 591">
        <path d="M70.9636 181.187L61.1836 72.2821H125.52V181.187H70.9636ZM9.97564 493.589V590.725H202.998V0.460083L0.0566406 20.1861V215.429L136.981 227.996V503.643L9.97564 493.589Z" />
    </symbol>
    <symbol id="l-0" viewBox="0 0 153 547">
        <path d="M142.65 0.950195L0.659912 11.0902L26.02 536.79L152.8 546.93L142.66 0.950195H142.65ZM97.0099 477.62L66.58 71.9402H97.0099L112.22 477.62H97.0099Z" />
    </symbol>
    <symbol id="l-6" viewBox="0 0 213 597">
        <path d="M138.158 297.985L148.365 510.33H81.2241V297.985H138.158ZM201.805 101.965V0.595337H0.369141V596.59L212.156 596.005V262.25L69.2631 249.135V91.4733L201.805 101.965Z"/>
    </symbol>
    <symbol id="l-7" viewBox="0 0 175 522">
        <path d="M0.0800171 75.2702L11.47 0.950195H174.22L121.71 517.19L34.86 521.07L111.44 62.5902L0.0800171 75.2702Z" />
    </symbol>
    <symbol id="l-2" viewBox="0 0 145 542">
        <path d="M11.3801 0.350098H144.79V173.12L40.7701 461.08L144.79 449.56V541.71H12.1201L0.540039 426.53L88.9001 187.52V86.0801L12.8401 104.01L11.3801 0.350098Z" />
    </symbol>
    <symbol id="l-5" viewBox="0 0 188 542">
        <path d="M0.310059 16.1101V195.98L126.45 207.55V433.85L9.45007 424.59V541.71H187.27L172.2 164.43H65.6301L56.6201 91.7401H172.2L162.49 0.350098L0.310059 16.1101Z" />
    </symbol>
    <symbol id="l-4" viewBox="0 0 225 571">
        <path d="M67.4402 0.939941L0.0302734 479.08L225.2 484.4L218.44 402.47L80.9402 401.57L140.97 10.64L67.4402 0.939941Z" />
        <path d="M140.97 274.33V570.14H196.75L189.99 218.55H140.97V274.33Z" />
    </symbol>
    <symbol id="l-1" viewBox="0 0 179 521">
        <path d="M0.950195 175.347L70.3972 11.9424L142.014 0.0854492V465.276L178.907 470.06V520.441H33.5032L35.6732 436.504H83.5092L72.5672 133.171L35.6732 196.976L0.950195 175.347Z" />
    </symbol>
    <symbol id="l-3" viewBox="0 0 192 524">
        <path d="M14.3532 0.914551H191.05L181.867 523.915L0.0498047 517.982L2.27131 426.369L115.538 433.938L118.559 229.313H24.9253L21.9046 151.302H130.851V52.1105H14.3532V0.914551Z"/>
    </symbol>
    <symbol id="glasses" viewBox="0 0 740 172">
        <path d="M705.33 0.899902H671.29H637.25H603.21H569.17H535.13H501.09H467.05H433.01H398.97H375.07H364.93H341.03H306.99H272.95H238.91H204.87H170.83H136.79H102.75H68.7099H34.6699H0.629883V34.9399H34.6699V68.9799V103.02H68.7099V137.06H102.75V171.1H136.79H170.83H204.87H238.91H272.95V137.06H306.99V103.02H341.03V68.9799V34.9399H364.93H375.07H398.97V68.9799V103.02H433.01V137.06H467.05V171.1H501.09H535.13H569.17H603.21H637.25V137.06H671.29V103.02H705.33V68.9799V34.9399H739.37V0.899902H705.33Z" fill="var(--Color-1)"/>
        <path d="M102.75 34.9399H68.71V68.9799H102.75V34.9399Z" fill="var(--Color-2)" />
        <path d="M238.91 103.02H204.87V137.06H238.91V103.02Z" fill="var(--Color-2)" />
        <path d="M204.87 68.98H170.83V103.02H204.87V68.98Z" fill="var(--Color-2)" />
        <path d="M136.79 68.98H102.75V103.02H136.79V68.98Z" fill="var(--Color-2)" />
        <path d="M170.83 103.02H136.79V137.06H170.83V103.02Z" fill="var(--Color-2)" />
        <path d="M272.95 68.98H238.91V103.02H272.95V68.98Z" fill="var(--Color-2)" />
        <path d="M306.99 34.9399H272.95V68.9799H306.99V34.9399Z" fill="var(--Color-2)" />
        <path d="M671.29 34.9399H637.25V68.9799H671.29V34.9399Z" fill="var(--Color-2)" />
        <path d="M535.13 103.02H501.09V137.06H535.13V103.02Z" fill="var(--Color-2)" />
        <path d="M569.17 68.98H535.13V103.02H569.17V68.98Z" fill="var(--Color-2)" />
        <path d="M637.25 68.98H603.21V103.02H637.25V68.98Z" fill="var(--Color-2)" />
        <path d="M603.21 103.02H569.17V137.06H603.21V103.02Z" fill="var(--Color-2)" />
        <path d="M501.09 68.98H467.05V103.02H501.09V68.98Z" fill="var(--Color-2)" />
        <path d="M467.05 34.9399H433.01V68.9799H467.05V34.9399Z" fill="var(--Color-2)" />
    </symbol>
    <symbol id="home" viewBox="0 0 576 512">
        <path d="M567.5 229.7C577.6 238.3 578.9 253.4 570.3 263.5C561.7 273.6 546.6 274.9 536.5 266.3L512 245.5V432C512 476.2 476.2 512 432 512H144C99.82 512 64 476.2 64 432V245.5L39.53 266.3C29.42 274.9 14.28 273.6 5.7 263.5C-2.875 253.4-1.634 238.3 8.473 229.7L272.5 5.7C281.4-1.9 294.6-1.9 303.5 5.7L567.5 229.7zM144 464H192V312C192 289.9 209.9 272 232 272H344C366.1 272 384 289.9 384 312V464H432C449.7 464 464 449.7 464 432V204.8L288 55.47L112 204.8V432C112 449.7 126.3 464 144 464V464zM240 464H336V320H240V464z"/>
    </symbol>
    <symbol id="tasks" viewBox="0 0 512 512">
        <path d="M81.84 152.1C77.43 156.9 71.21 159.8 64.63 159.1C58.05 160.2 51.69 157.6 47.03 152.1L7.029 112.1C-2.343 103.6-2.343 88.4 7.029 79.03C16.4 69.66 31.6 69.66 40.97 79.03L63.08 101.1L118.2 39.94C127 30.09 142.2 29.29 152.1 38.16C161.9 47.03 162.7 62.2 153.8 72.06L81.84 152.1zM81.84 312.1C77.43 316.9 71.21 319.8 64.63 319.1C58.05 320.2 51.69 317.6 47.03 312.1L7.029 272.1C-2.343 263.6-2.343 248.4 7.029 239C16.4 229.7 31.6 229.7 40.97 239L63.08 261.1L118.2 199.9C127 190.1 142.2 189.3 152.1 198.2C161.9 207 162.7 222.2 153.8 232.1L81.84 312.1zM216 120C202.7 120 192 109.3 192 96C192 82.75 202.7 72 216 72H488C501.3 72 512 82.75 512 96C512 109.3 501.3 120 488 120H216zM192 256C192 242.7 202.7 232 216 232H488C501.3 232 512 242.7 512 256C512 269.3 501.3 280 488 280H216C202.7 280 192 269.3 192 256zM160 416C160 402.7 170.7 392 184 392H488C501.3 392 512 402.7 512 416C512 429.3 501.3 440 488 440H184C170.7 440 160 429.3 160 416zM64 448C46.33 448 32 433.7 32 416C32 398.3 46.33 384 64 384C81.67 384 96 398.3 96 416C96 433.7 81.67 448 64 448z"/>
    </symbol>
    <symbol id="asgardians" viewBox="0 0 640 512">
        <path d="M319.9 320c57.41 0 103.1-46.56 103.1-104c0-57.44-46.54-104-103.1-104c-57.41 0-103.1 46.56-103.1 104C215.9 273.4 262.5 320 319.9 320zM319.9 160c30.85 0 55.96 25.12 55.96 56S350.7 272 319.9 272S263.9 246.9 263.9 216S289 160 319.9 160zM512 160c44.18 0 80-35.82 80-80S556.2 0 512 0c-44.18 0-80 35.82-80 80S467.8 160 512 160zM369.9 352H270.1C191.6 352 128 411.7 128 485.3C128 500.1 140.7 512 156.4 512h327.2C499.3 512 512 500.1 512 485.3C512 411.7 448.4 352 369.9 352zM178.1 464c10.47-36.76 47.36-64 91.14-64H369.9c43.77 0 80.66 27.24 91.14 64H178.1zM551.9 192h-61.84c-12.8 0-24.88 3.037-35.86 8.24C454.8 205.5 455.8 210.6 455.8 216c0 33.71-12.78 64.21-33.16 88h199.7C632.1 304 640 295.6 640 285.3C640 233.8 600.6 192 551.9 192zM183.9 216c0-5.449 .9824-10.63 1.609-15.91C174.6 194.1 162.6 192 149.9 192H88.08C39.44 192 0 233.8 0 285.3C0 295.6 7.887 304 17.62 304h199.5C196.7 280.2 183.9 249.7 183.9 216zM128 160c44.18 0 80-35.82 80-80S172.2 0 128 0C83.82 0 48 35.82 48 80S83.82 160 128 160z"/>
    </symbol>
    <symbol id="wallet" viewBox="0 0 512 512">
        <path xmlns="http://www.w3.org/2000/svg" d="M456 32C469.3 32 480 42.75 480 56C480 69.25 469.3 80 456 80H88C65.91 80 48 97.91 48 120V392C48 414.1 65.91 432 88 432H424C446.1 432 464 414.1 464 392V216C464 193.9 446.1 176 424 176H120C106.7 176 96 165.3 96 152C96 138.7 106.7 128 120 128H424C472.6 128 512 167.4 512 216V392C512 440.6 472.6 480 424 480H88C39.4 480 0 440.6 0 392V120C0 71.4 39.4 32 88 32H456zM352 304C352 286.3 366.3 272 384 272C401.7 272 416 286.3 416 304C416 321.7 401.7 336 384 336C366.3 336 352 321.7 352 304z"/>
    </symbol>
    <symbol id="blood" viewBox="0 0 81 81">
        <path d="M21.1302 31.6953H15.8477V42.2604H21.1302V31.6953Z"/>
        <path d="M31.6958 21.1301V10.5652H26.4133V21.1301H21.1309V31.6953H26.4134V21.1301H31.6958Z"/>
        <path d="M65.1519 42.2603V31.6952H59.8693V21.1301H54.5867V10.5651H49.3042V5.28256H44.0216V0H36.9782V5.28256H31.6957V10.5651H36.9782V21.1302H31.6957V31.6954H26.4133V42.2605H21.1309V49.3038H15.8483V42.2605H10.5659V65.1515H15.8482V70.4341H21.1307V75.7167H26.4133V75.7165H31.6957V81H54.5842V75.7162H59.8699V70.4338H65.152V65.1512H70.4347V42.2603H65.1519ZM15.848 59.8688V54.5862H21.1306V59.8688H15.848Z"/>
    </symbol>
    <symbol id="loki" viewBox="0 0 460 460">
        <path d="M395.629,79.261c-6.186-38.147-24.26-64.763-50.893-74.944c-8.875-3.392-18.407-4.796-28.35-4.172   c-3.909,0.245-7.314,2.75-8.714,6.409c-1.398,3.658-0.532,7.797,2.216,10.588c13.285,13.491,21.521,36.156,23.19,63.822   c1.787,29.622-3.799,62.36-16.152,94.676c-3.258,8.523-6.919,16.79-10.927,24.758c-21.646-16.91-48.183-26.103-76-26.103   c-27.817,0-54.354,9.193-76,26.103c-4.007-7.968-7.668-16.236-10.927-24.759c-12.354-32.315-17.939-65.054-16.152-94.676   c1.669-27.666,9.904-50.331,23.19-63.822c2.749-2.791,3.614-6.929,2.216-10.588c-1.399-3.659-4.805-6.164-8.714-6.409   c-9.94-0.625-19.475,0.78-28.35,4.172C88.631,14.498,70.557,41.114,64.371,79.261c-5.87,36.195-0.358,79.001,15.518,120.532   c8.609,22.521,20.451,44.672,32.262,60.563c-3.868,12.12-5.825,24.746-5.825,37.612v122.11c0,3.987,2.368,7.593,6.027,9.177   l69.108,29.922c1.273,0.551,2.625,0.823,3.972,0.823c1.923,0,3.835-0.554,5.49-1.641c2.815-1.849,4.511-4.991,4.511-8.359v-70.564   c0-5.523-4.477-10-10-10H160.65v-59.367l65.453,27.691c0.006,0.003,0.012,0.004,0.018,0.007c0.043,0.018,0.089,0.031,0.132,0.048   c0.003,0.001,0.005,0.002,0.008,0.003c0.133,0.054,0.268,0.099,0.402,0.147c0.196,0.069,0.391,0.136,0.59,0.193   c0.07,0.02,0.138,0.043,0.208,0.061c0.112,0.03,0.225,0.052,0.338,0.078c0.216,0.049,0.433,0.087,0.651,0.121   c0.089,0.014,0.175,0.037,0.264,0.049c0.065,0.008,0.13,0.013,0.196,0.02c0.288,0.031,0.576,0.046,0.865,0.053   c0.072,0.002,0.143,0.013,0.215,0.013c0.003,0,0.006-0.001,0.009-0.001s0.006,0.001,0.009,0.001c0.071,0,0.142-0.011,0.212-0.013   c0.29-0.006,0.58-0.021,0.869-0.053c0.064-0.007,0.129-0.012,0.193-0.02c0.088-0.011,0.173-0.034,0.26-0.048   c0.221-0.035,0.441-0.073,0.659-0.122c0.112-0.025,0.224-0.048,0.335-0.078c0.068-0.018,0.135-0.04,0.203-0.06   c0.202-0.058,0.401-0.125,0.6-0.196c0.132-0.047,0.263-0.091,0.394-0.144c0.009-0.003,0.017-0.006,0.026-0.009   c0.038-0.015,0.077-0.026,0.114-0.042c0.007-0.003,0.014-0.005,0.021-0.008l65.453-27.691v59.367h-24.785c-5.522,0-10,4.477-10,10   V450c0,5.523,4.478,10,10,10h8.751c1.541,0,3.061-0.356,4.441-1.041l60.358-29.922c3.404-1.688,5.559-5.159,5.559-8.959v-122.11   c0-12.865-1.958-25.492-5.826-37.612c11.812-15.89,23.653-38.042,32.263-60.562C395.986,158.262,401.498,115.456,395.629,79.261z    M154.547,285.77c-3.088-1.306-6.625-0.978-9.421,0.874c-2.795,1.852-4.476,4.982-4.476,8.335v84.456c0,5.523,4.477,10,10,10   h24.785v45.337l-49.108-21.262V297.968c0-9.887,1.4-19.593,4.12-28.959l57.243,2.446l19.92,36.764L154.547,285.77z    M333.674,413.874l-49.109,24.345v-48.784h24.785c5.522,0,10-4.477,10-10V294.98c0-3.353-1.681-6.483-4.476-8.335   c-2.795-1.853-6.334-2.181-9.421-0.874l-53.064,22.449l19.92-36.764l57.244-2.446c2.721,9.366,4.12,19.072,4.12,28.959V413.874z    M361.429,192.652c-7.961,20.825-19.231,41.911-29.979,56.258l-65.658,2.806c-3.514,0.15-6.69,2.135-8.365,5.227L230,307.559   l-27.426-50.616c-1.676-3.092-4.852-5.077-8.366-5.227l-65.658-2.806c-10.749-14.347-22.018-35.433-29.979-56.258   C83.934,154.364,78.8,115.231,84.113,82.462c4.894-30.177,18.037-51.055,37.075-58.978c-8.061,15.353-12.91,34.391-14.23,56.275   c-1.957,32.443,4.071,68.067,17.434,103.021c5.058,13.232,11.013,25.921,17.737,37.874c0.153,0.305,0.324,0.603,0.511,0.894   c1.74,3.065,3.517,6.094,5.358,9.057c2.915,4.691,9.082,6.13,13.771,3.215c4.691-2.915,6.13-9.081,3.215-13.772   c-0.389-0.626-0.764-1.268-1.148-1.9c18.574-15.434,41.784-23.854,66.165-23.854c24.381,0,47.59,8.42,66.165,23.854   c-0.384,0.631-0.759,1.274-1.148,1.9c-2.915,4.691-1.476,10.856,3.215,13.772c4.69,2.916,10.857,1.476,13.771-3.215   c1.842-2.964,3.62-5.995,5.361-9.062c0.18-0.281,0.344-0.57,0.493-0.864c6.73-11.961,12.69-24.657,17.752-37.899   c13.362-34.955,19.392-70.579,17.435-103.022c-1.32-21.884-6.17-40.922-14.23-56.275c19.037,7.924,32.181,28.801,37.074,58.978   C381.2,115.231,376.065,154.364,361.429,192.652z"/>
        <path d="M259.484,217.524c-9.44-3.47-19.36-5.229-29.484-5.229c-10.128,0-20.051,1.76-29.494,5.233   c-5.184,1.906-7.84,7.653-5.935,12.837c1.488,4.045,5.314,6.552,9.387,6.552c1.146,0,2.312-0.198,3.45-0.617   c7.226-2.657,14.827-4.004,22.592-4.004c7.762,0,15.36,1.346,22.584,4.001c5.188,1.906,10.932-0.753,12.836-5.936   C267.325,225.176,264.668,219.429,259.484,217.524z"/>
    </symbol>
    <symbol id="angle-1" viewBox="0 0 36 37">
        <path d="M2.00195 37L2.00195 7.12195L7.1239 2L35.2946 2" stroke="#5A5CAF" stroke-width="3"/>
        <path d="M8.83203 37L8.83203 13.6805L12.9033 9.68293L35.2954 9.68293" stroke="#5A5CAF" stroke-width="3"/>
    </symbol>
    <symbol id="angle-2" viewBox="0 0 36 37">
        <path d="M34.1465 0L34.1465 29.878L29.0245 35L0.853801 35" stroke="#5A5CAF" stroke-width="3"/>
        <path d="M27.3164 0L27.3164 23.3195L23.2451 27.3171L0.852991 27.3171" stroke="#5A5CAF" stroke-width="3"/>
    </symbol>
    <symbol id="game-pass" viewBox="0 0 327 165">
        <path d="M47.3751 161.422H0.945312L0.945313 106.824H47.3751L47.3751 161.422Z" />
        <path d="M233.154 55.2227L186.725 55.2227V0.624725L233.154 0.624725V55.2227Z" />
        <path d="M186.699 109.819H140.27V55.2213L186.699 55.2213V109.819Z" />
        <path d="M93.7989 109.819H47.3691L47.3691 55.2213L93.7989 55.2213V109.819Z" />
        <path d="M140.254 55.2227L93.8242 55.2227V0.624725L140.254 0.624725V55.2227Z" />
        <path d="M279.582 109.821H233.152V55.2233L279.582 55.2233V109.821Z" />
        <path d="M326.037 164.422H279.607V109.824H326.037V164.422Z" />
    </symbol>
    <symbol id="user-group" viewBox="0 0 640 512">
        <path d="M224 256c70.7 0 128-57.31 128-128S294.7 0 224 0C153.3 0 96 57.31 96 128S153.3 256 224 256zM224 48c44.11 0 80 35.89 80 80c0 44.11-35.89 80-80 80S144 172.1 144 128C144 83.89 179.9 48 224 48zM274.7 304H173.3c-95.73 0-173.3 77.6-173.3 173.3C0 496.5 15.52 512 34.66 512H413.3C432.5 512 448 496.5 448 477.3C448 381.6 370.4 304 274.7 304zM48.71 464C55.38 401.1 108.7 352 173.3 352H274.7c64.61 0 117.1 49.13 124.6 112H48.71zM479.1 320h-73.85C451.2 357.7 480 414.1 480 477.3C480 490.1 476.2 501.9 470 512h138C625.7 512 640 497.6 640 479.1C640 391.6 568.4 320 479.1 320zM432 256C493.9 256 544 205.9 544 144S493.9 32 432 32c-25.11 0-48.04 8.555-66.72 22.51C376.8 76.63 384 101.4 384 128c0 35.52-11.93 68.14-31.59 94.71C372.7 243.2 400.8 256 432 256z"/>
    </symbol>
    <symbol id="close" viewBox="0 0 18 18">
        <path d="M4.8 14.25L3.75 13.2L7.95 9L3.75 4.8L4.8 3.75L9 7.95L13.2 3.75L14.25 4.8L10.05 9L14.25 13.2L13.2 14.25L9 10.05L4.8 14.25Z"/>
    </symbol>
    <symbol id="loader-1" viewBox="0 0 585 585">
        <path d="M282.865 124.523C308.619 82.0138 355.205 24.8961 355.205 24.8961C301.075 50.8303 228.566 80.0418 228.566 80.0418C260.06 104.335 282.865 124.523 282.865 124.523ZM269.082 282.413C231.19 244.495 254.978 169.492 276.631 135.353C255.799 117.463 235.292 100.888 215.278 85.1303C154.255 108.435 146.873 110.899 141.623 106.96C137.194 102.529 138.834 97.2746 143.756 92.3516C149.825 86.2795 177.549 71.6714 188.704 65.1074C188.539 64.9419 161.636 47.8746 142.443 32.2829C140.803 30.6419 139.162 27.6863 140.475 26.3763C142.608 24.2388 155.403 28.1781 199.53 58.2125C264.982 18.6585 307.797 -0.541565 328.14 0.442108C330.107 0.768494 332.078 1.75674 333.387 3.06677C335.032 4.70776 335.684 7.00607 334.375 9.63074C333.883 10.1272 291.392 32.6093 290.736 31.952C290.08 31.2993 290.736 30.3109 291.722 29.3273C295.002 26.0453 303.207 21.4487 304.843 19.8077L305.008 19.3158C274.499 33.7584 243.658 50.173 212.818 68.2239C217.903 73.3124 370.628 -3.98904 379.486 4.87323C403.105 28.5091 357.829 27.8518 295.333 135.353C321.741 161.779 321.741 172.609 317.969 176.387C314.197 180.161 308.785 177.04 307.305 175.564C311.408 170.149 288.934 146.679 288.934 146.679C260.39 196.244 246.447 252.539 273.843 279.949C277.778 283.888 279.746 283.231 282.209 285.693C283.356 286.84 283.521 289.304 282.535 290.287C281.223 291.603 277.944 291.273 269.082 282.413Z"/>
        <path d="M460.34 283.008C502.827 308.775 559.909 355.39 559.909 355.39C533.993 301.226 504.794 228.685 504.794 228.685C480.515 260.196 460.34 283.008 460.34 283.008ZM302.529 269.221C340.425 231.311 415.39 255.106 449.515 276.771C467.394 255.927 483.96 235.413 499.711 215.391C476.415 154.335 473.957 146.948 477.89 141.695C482.323 137.264 487.569 138.907 492.489 143.83C498.56 149.904 513.16 177.638 519.723 188.802C519.89 188.635 536.947 161.718 552.531 142.517C554.172 140.874 557.122 139.236 558.434 140.549C560.568 142.679 556.63 155.481 526.61 199.633C566.143 265.119 585.338 307.954 584.355 328.306C584.026 330.275 583.043 332.248 581.73 333.56C580.088 335.198 577.793 335.855 575.168 334.542C574.676 334.051 552.201 291.543 552.855 290.887C553.514 290.23 554.497 290.887 555.485 291.873C558.764 295.155 563.355 303.36 564.997 305.002L565.489 305.163C551.056 274.636 534.652 243.784 516.606 212.927C511.523 218.017 588.784 370.814 579.926 379.679C556.306 403.313 556.96 358.015 449.515 295.48C423.103 321.908 412.274 321.904 408.499 318.132C404.728 314.355 407.845 308.94 409.32 307.462C414.736 311.565 438.195 289.083 438.195 289.083C388.653 260.521 332.387 246.573 304.992 273.982C301.05 277.917 301.713 279.894 299.25 282.351C298.1 283.503 295.64 283.664 294.658 282.681C293.346 281.369 293.672 278.084 302.529 269.221Z"/>
        <path d="M301.944 460.729C276.19 503.237 229.601 560.352 229.601 560.352C283.735 534.424 356.242 505.206 356.242 505.206C324.745 480.916 301.944 460.729 301.944 460.729ZM315.723 302.843C353.618 340.753 329.832 415.761 308.178 449.898C329.011 467.787 349.518 484.362 369.529 500.121C430.551 476.813 437.936 474.353 443.183 478.291C447.614 482.724 445.972 487.974 441.05 492.898C434.982 498.969 407.26 513.576 396.105 520.143C396.27 520.308 423.171 537.375 442.366 552.968C444.004 554.611 445.646 557.562 444.334 558.875C442.201 561.009 429.404 557.071 385.276 527.036C319.823 566.589 277.011 585.794 256.669 584.807C254.701 584.481 252.733 583.495 251.417 582.182C249.78 580.539 249.124 578.245 250.436 575.62C250.926 575.124 293.413 552.638 294.069 553.299C294.725 553.955 294.069 554.937 293.087 555.924C289.803 559.205 281.602 563.799 279.96 565.441L279.8 565.933C310.31 551.491 341.151 535.08 371.988 517.027C366.906 511.938 214.181 589.24 205.323 580.379C181.701 556.745 226.977 557.401 289.478 449.898C263.067 423.475 263.067 412.64 266.838 408.868C270.612 405.091 276.025 408.207 277.502 409.685C273.401 415.104 295.876 438.573 295.876 438.573C324.419 389.007 338.363 332.713 310.966 305.303C307.031 301.365 305.059 302.021 302.6 299.557C301.453 298.41 301.288 295.946 302.27 294.963C303.586 293.651 306.866 293.977 315.723 302.843Z"/>
        <path d="M124.467 302.244C81.9804 276.477 24.8933 229.866 24.8933 229.866C50.8119 284.026 80.0117 356.569 80.0117 356.569C104.29 325.056 124.467 302.244 124.467 302.244ZM282.275 316.03C244.382 353.944 169.415 330.145 135.294 308.481C117.413 329.324 100.845 349.842 85.097 369.864C108.391 430.921 110.851 438.304 106.914 443.555C102.485 447.987 97.2358 446.349 92.3147 441.425C86.2451 435.349 71.6452 407.613 65.0839 396.452C64.9197 396.618 47.8594 423.532 32.2751 442.737C30.6349 444.376 27.682 446.019 26.3697 444.706C24.2369 442.572 28.1742 429.769 58.1937 385.622C18.6595 320.132 -0.533575 277.298 0.45114 256.946C0.779103 254.977 1.76299 253.008 3.07567 251.691C4.7159 250.053 7.01247 249.397 9.63741 250.709C10.1296 251.2 32.6031 293.709 31.9472 294.365C31.2908 295.021 30.3065 294.365 29.3222 293.383C26.0413 290.097 21.4482 281.892 19.808 280.253L19.3159 280.088C33.7516 310.615 50.1555 341.471 68.2005 372.328C73.2858 367.239 -3.97822 214.437 4.88009 205.576C28.5021 181.938 27.8458 227.241 135.294 289.771C161.705 263.347 172.532 263.347 176.304 267.12C180.077 270.896 176.961 276.312 175.484 277.789C170.071 273.687 146.613 296.173 146.613 296.173C196.154 324.73 252.42 338.681 279.816 311.271C283.752 307.333 283.096 305.364 285.559 302.9C286.705 301.753 289.164 301.588 290.15 302.574C291.462 303.887 291.136 307.168 282.275 316.03Z"/>
    </symbol>
    <symbol id="loader-2" viewBox="0 0 591 592">
        <path d="M170.05 183.485C158.218 135.203 150.794 61.8573 150.794 61.8573C130.843 118.492 100.22 190.447 100.22 190.447C139.658 185.339 170.05 183.485 170.05 183.485ZM271.892 304.875C218.304 304.875 182.113 235.012 173.297 195.555C145.922 197.642 119.707 200.429 94.4204 203.445C67.7411 263.097 64.2612 270.058 57.7657 270.987C51.5021 270.987 48.9504 266.113 48.9504 259.147C48.9504 250.56 58.2296 220.622 61.4776 208.086C61.2452 208.086 30.1587 215.048 5.56778 217.602C3.24754 217.602 0 216.673 0 214.819C0 211.798 11.8314 205.532 64.2612 195.555C82.589 121.28 99.2919 77.4097 114.372 63.7155C115.995 62.553 118.083 61.8573 119.939 61.8573C122.259 61.8573 124.347 63.0198 125.275 65.8026C125.275 66.4984 111.124 112.456 110.196 112.456C109.268 112.456 109.035 111.297 109.035 109.906C109.035 105.261 111.588 96.2118 111.588 93.8912L111.356 93.4245C99.9877 125.225 89.7799 158.646 80.7331 193.23C87.9244 193.23 141.282 30.5234 153.81 30.5234C187.217 30.5234 154.738 62.0907 186.521 182.323C223.871 182.323 231.527 189.98 231.527 195.321C231.527 200.658 225.495 202.283 223.407 202.283C222.479 195.555 190 194.859 190 194.859C204.848 250.098 234.775 299.772 273.518 299.772C279.087 299.772 280.015 297.914 283.492 297.914C285.116 297.914 286.973 299.534 286.973 300.93C286.973 302.788 284.421 304.875 271.892 304.875Z" fill="#FE0000"/>
        <path d="M407.408 170.135C455.663 158.296 528.969 150.869 528.969 150.869C472.364 130.909 400.448 100.272 400.448 100.272C405.55 139.727 407.408 170.135 407.408 170.135ZM286.074 272.032C286.074 218.414 355.905 182.204 395.341 173.385C393.254 145.998 390.468 119.768 387.454 94.4691C327.835 67.775 320.874 64.2953 319.947 57.7951C319.947 51.529 324.82 48.9767 331.78 48.9767C340.36 48.9767 370.289 58.2588 382.815 61.5089C382.815 61.2748 375.86 30.1737 373.304 5.57297C373.304 3.25015 374.231 0 376.089 0C379.103 0 385.366 11.839 395.341 64.2953C469.579 82.63 513.424 99.3442 527.11 114.429C528.276 116.054 528.969 118.143 528.969 120.002C528.969 122.32 527.808 124.409 525.023 125.341C524.325 125.341 478.397 111.179 478.397 110.251C478.397 109.324 479.554 109.09 480.944 109.09C485.587 109.09 494.635 111.642 496.957 111.642L497.42 111.413C465.637 100.037 432.231 89.8234 397.663 80.7754C397.663 87.9688 560.288 141.352 560.288 153.889C560.288 187.313 528.739 154.817 408.569 186.615C408.569 223.982 400.911 231.644 395.575 231.644C390.239 231.644 388.615 225.607 388.615 223.519C395.341 222.591 396.039 190.095 396.039 190.095C340.824 204.95 291.177 234.894 291.177 273.652C291.177 279.225 293.033 280.152 293.033 283.637C293.033 285.262 291.412 287.116 290.018 287.116C288.162 287.116 286.074 284.569 286.074 272.032Z" fill="#FE0000"/>
        <path d="M420.761 407.769C432.59 456.048 440.011 529.392 440.011 529.392C459.965 472.759 490.59 400.806 490.59 400.806C451.15 405.911 420.761 407.769 420.761 407.769ZM318.911 286.373C372.506 286.373 408.695 356.238 417.514 395.696C444.883 393.608 471.1 390.826 496.389 387.805C523.069 328.155 526.547 321.192 533.041 320.263C539.303 320.263 541.86 325.138 541.86 332.101C541.86 340.69 532.582 370.63 529.331 383.165C529.563 383.165 560.647 376.203 585.242 373.648C587.558 373.648 590.809 374.576 590.809 376.433C590.809 379.451 578.98 385.716 526.547 395.696C508.219 469.973 491.517 513.84 476.44 527.535C474.814 528.698 472.725 529.392 470.868 529.392C468.552 529.392 466.458 528.232 465.532 525.446C465.532 524.752 479.687 478.794 480.613 478.794C481.54 478.794 481.771 479.954 481.771 481.348C481.771 485.988 479.219 495.039 479.219 497.363L479.455 497.825C490.817 466.027 501.03 432.604 510.076 398.02C502.883 398.02 449.524 560.727 436.995 560.727C403.591 560.727 436.069 529.161 404.285 408.929C366.934 408.929 359.278 401.268 359.278 395.932C359.278 390.591 365.313 388.969 367.402 388.969C368.328 395.696 400.807 396.394 400.807 396.394C385.957 341.152 356.031 291.483 317.29 291.483C311.723 291.483 310.796 293.34 307.318 293.34C305.692 293.34 303.835 291.714 303.835 290.319C303.835 288.466 306.387 286.373 318.911 286.373Z" fill="#FE0000"/>
        <path d="M183.4 421.117C135.146 432.955 61.8365 440.384 61.8365 440.384C118.443 460.344 190.36 490.982 190.36 490.982C185.256 451.524 183.4 421.117 183.4 421.117ZM304.73 319.22C304.73 372.839 234.902 409.049 195.464 417.869C197.551 445.259 200.335 471.484 203.351 496.785C262.973 523.477 269.933 526.961 270.861 533.457C270.861 539.723 265.989 542.278 259.03 542.278C250.445 542.278 220.519 532.995 207.991 529.743C207.991 529.978 214.951 561.078 217.503 585.682C217.503 588.005 216.575 591.254 214.719 591.254C211.703 591.254 205.439 579.416 195.464 526.961C121.226 508.623 77.3803 491.911 63.6925 476.825C62.5324 475.199 61.8365 473.11 61.8365 471.253C61.8365 468.933 62.9965 466.841 65.7807 465.916C66.4766 465.916 112.411 480.073 112.411 481.002C112.411 481.931 111.251 482.162 109.859 482.162C105.219 482.162 96.1711 479.607 93.8515 479.607L93.3874 479.842C125.17 491.213 158.577 501.429 193.144 510.48C193.144 503.282 30.5178 449.898 30.5178 437.363C30.5178 403.943 62.0687 436.438 182.24 404.636C182.24 367.267 189.896 359.61 195.231 359.61C200.567 359.61 202.191 365.645 202.191 367.733C195.464 368.662 194.768 401.157 194.768 401.157C249.983 386.302 299.627 356.358 299.627 317.597C299.627 312.025 297.77 311.097 297.77 307.617C297.77 305.991 299.396 304.134 300.786 304.134C302.642 304.134 304.73 306.689 304.73 319.22Z" fill="#FE0000"/>
    </symbol>
    <symbol id="we" viewBox="0 10 490 490">
        <path d="M 518.676 -0.796 L 1.169 1.234 L 0.153 -0.198 L -1.279 502.384 L 502.018 503.816 L 502.018 324.834 L 476.245 324.834 L 476.245 356.334 L 288.672 356.334 L 288.672 140.124 L 262.898 140.124 L 262.898 323.402 L 229.966 324.834 L 231.397 354.187 L 169.112 356.334 L 169.828 325.549 L 106.11 326.265 L 106.11 355.618 L 44.54 355.618 C 44.54 355.618 43.824 326.265 44.54 326.265 C 45.256 326.265 13.039 326.265 13.039 326.265 L 13.039 140.124 L 75.325 140.124 L 500.586 1.234 L 75.325 140.124 L 75.325 294.765 L 107.542 294.049 L 106.826 201.694 L 169.112 201.694 L 169.828 294.765 L 200.612 295.481 L 199.897 140.124 L 476.961 140.84 L 476.245 171.625 L 351.673 170.909 L 351.673 232.479 L 444.744 233.195 L 444.744 263.264 L 351.673 263.98 L 350.957 324.834 L 503.45 324.834 L 499.154 1.95 L 75.325 140.124 L 518.676 -0.796 Z"></path>
    </symbol>
    <symbol id="loader-3" viewBox="0 10 16 226">
        <path d="M0.00390645 64.7156L0.00390625 69.1797L4.47142 69.1797L4.47142 64.7156L0.00390645 64.7156Z" />
        <path d="M0.00390645 59.3373L0.00390625 63.8013L4.47142 63.8013L4.47142 59.3373L0.00390645 59.3373Z" />
        <path d="M0.00390645 53.9649L0.00390625 58.429L4.47142 58.429L4.47142 53.9649L0.00390645 53.9649Z" />
        <path d="M0.00390645 43.2208L0.00390625 47.6848L4.47142 47.6848L4.47142 43.2208L0.00390645 43.2208Z" />
        <path d="M0.00390645 37.8482L0.00390625 42.3123L4.47142 42.3123L4.47142 37.8482L0.00390645 37.8482Z" />
        <path d="M0.00390645 27.0977L0.00390625 31.5618L4.47142 31.5618L4.47142 27.0977L0.00390645 27.0977Z" />
        <path d="M0.00390645 21.7259L0.00390625 26.1899L4.47142 26.1899L4.47142 21.7259L0.00390645 21.7259Z" />
        <path d="M0.00390645 16.3536L0.00390625 20.8176L4.47142 20.8176L4.47142 16.3536L0.00390645 16.3536Z" />
        <path d="M0.00390645 10.981L0.00390625 15.4451L4.47142 15.4451L4.47142 10.981L0.00390645 10.981Z" />
        <path d="M0.00390645 5.60921L0.00390625 10.0732L4.47142 10.0732L4.47142 5.60921L0.00390645 5.60921Z" />
        <path d="M5.31055 64.7156L5.31055 69.1797L9.77797 69.1797L9.77797 64.7156L5.31055 64.7156Z" />
        <path d="M5.31055 59.3373L5.31055 63.8013L9.77797 63.8013L9.77797 59.3373L5.31055 59.3373Z" />
        <path d="M5.31055 53.9649L5.31055 58.429L9.77797 58.429L9.77797 53.9649L5.31055 53.9649Z" />
        <path d="M5.31055 48.5926L5.31055 53.0566L9.77797 53.0566L9.77797 48.5926L5.31055 48.5926Z" />
        <path d="M5.31055 37.8482L5.31055 42.3123L9.77797 42.3123L9.77797 37.8482L5.31055 37.8482Z" />
        <path d="M5.31055 32.4696L5.31055 36.9336L9.77797 36.9336L9.77797 32.4696L5.31055 32.4696Z" />
        <path d="M5.31055 27.0977L5.31055 31.5618L9.77797 31.5618L9.77797 27.0977L5.31055 27.0977Z" />
        <path d="M5.31055 21.7259L5.31055 26.1899L9.77797 26.1899L9.77797 21.7259L5.31055 21.7259Z" />
        <path d="M5.31055 10.981L5.31055 15.4451L9.77797 15.4451L9.77797 10.981L5.31055 10.981Z" />
        <path d="M5.31055 5.60921L5.31055 10.0732L9.77797 10.0732L9.77797 5.60921L5.31055 5.60921Z" />
        <path d="M10.6167 64.7156L10.6167 69.1797L15.0841 69.1797L15.0841 64.7156L10.6167 64.7156Z" />
        <path d="M10.6167 59.3373L10.6167 63.8013L15.0841 63.8013L15.0841 59.3373L10.6167 59.3373Z" />
        <path d="M10.6167 53.9649L10.6167 58.429L15.0841 58.429L15.0841 53.9649L10.6167 53.9649Z" />
        <path d="M10.6167 48.5926L10.6167 53.0566L15.0841 53.0566L15.0841 48.5926L10.6167 48.5926Z" />
        <path d="M10.6167 43.2208L10.6167 47.6848L15.0841 47.6848L15.0841 43.2208L10.6167 43.2208Z" />
        <path d="M10.6167 37.8482L10.6167 42.3123L15.0841 42.3123L15.0841 37.8482L10.6167 37.8482Z" />
        <path d="M10.6167 32.4696L10.6167 36.9336L15.0841 36.9336L15.0841 32.4696L10.6167 32.4696Z" />
        <path d="M10.6167 27.0977L10.6167 31.5618L15.0841 31.5618L15.0841 27.0977L10.6167 27.0977Z" />
        <path d="M10.6167 21.7259L10.6167 26.1899L15.0841 26.1899L15.0841 21.7259L10.6167 21.7259Z" />
        <path d="M10.6167 16.3536L10.6167 20.8176L15.0841 20.8176L15.0841 16.3536L10.6167 16.3536Z" />
        <path d="M10.6167 10.981L10.6167 15.4451L15.0841 15.4451L15.0841 10.981L10.6167 10.981Z" />
        <path d="M0.00390645 8.05855e-05L0.00390625 4.46411L4.47142 4.46411L4.47142 8.07808e-05L0.00390645 8.05855e-05Z" />
        <path d="M5.31055 8.05855e-05L5.31055 4.46411L9.77797 4.46411L9.77797 8.07808e-05L5.31055 8.05855e-05Z" />
        <path d="M10.6167 8.05855e-05L10.6167 4.46411L15.0841 4.46411L15.0841 8.07808e-05L10.6167 8.05855e-05Z" />
        <path d="M4.46777 74.1301L4.46777 69.666L0.000258923 69.666L0.000258727 74.1301L4.46777 74.1301Z" />
        <path d="M4.46777 79.5046L4.46777 75.0405L0.000258923 75.0405L0.000258727 79.5046L4.46777 79.5046Z" />
        <path d="M4.46777 84.8793L4.46777 80.4153L0.000258923 80.4153L0.000258727 84.8793L4.46777 84.8793Z" />
        <path d="M4.46777 95.6283L4.46777 91.1643L0.000258923 91.1643L0.000258727 95.6283L4.46777 95.6283Z" />
        <path d="M4.46777 100.996L4.46777 96.5325L0.000258923 96.5325L0.000258727 100.996L4.46777 100.996Z" />
        <path d="M4.46777 111.746L4.46777 107.281L0.000258923 107.281L0.000258727 111.746L4.46777 111.746Z" />
        <path d="M4.46777 117.12L4.46777 112.656L0.000258923 112.656L0.000258727 117.12L4.46777 117.12Z" />
        <path d="M4.46777 122.495L4.46777 118.031L0.000258923 118.031L0.000258727 122.495L4.46777 122.495Z" />
        <path d="M4.46777 127.869L4.46777 123.405L0.000258923 123.405L0.000258727 127.869L4.46777 127.869Z" />
        <path d="M4.46777 133.237L4.46777 128.773L0.000258923 128.773L0.000258727 133.237L4.46777 133.237Z" />
        <path d="M9.77686 74.1301L9.77686 69.666L5.30944 69.666L5.30944 74.1301L9.77686 74.1301Z" />
        <path d="M9.77686 79.5046L9.77686 75.0405L5.30944 75.0405L5.30944 79.5046L9.77686 79.5046Z" />
        <path d="M9.77686 84.8793L9.77686 80.4153L5.30944 80.4153L5.30944 84.8793L9.77686 84.8793Z" />
        <path d="M9.77686 90.2538L9.77686 85.7898L5.30944 85.7898L5.30944 90.2538L9.77686 90.2538Z" />
        <path d="M9.77686 100.996L9.77686 96.5325L5.30944 96.5325L5.30944 100.996L9.77686 100.996Z" />
        <path d="M9.77686 106.371L9.77686 101.907L5.30944 101.907L5.30944 106.371L9.77686 106.371Z" />
        <path d="M9.77686 111.746L9.77686 107.281L5.30944 107.281L5.30944 111.746L9.77686 111.746Z" />
        <path d="M9.77686 117.12L9.77686 112.656L5.30944 112.656L5.30944 117.12L9.77686 117.12Z" />
        <path d="M9.77686 127.869L9.77686 123.405L5.30944 123.405L5.30944 127.869L9.77686 127.869Z" />
        <path d="M9.77686 133.237L9.77686 128.773L5.30944 128.773L5.30944 133.237L9.77686 133.237Z" />
        <path d="M15.0859 74.1301L15.0859 69.666L10.6185 69.666L10.6185 74.1301L15.0859 74.1301Z" />
        <path d="M15.0859 79.5046L15.0859 75.0405L10.6185 75.0405L10.6185 79.5046L15.0859 79.5046Z" />
        <path d="M15.0859 84.8793L15.0859 80.4153L10.6185 80.4153L10.6185 84.8793L15.0859 84.8793Z" />
        <path d="M15.0859 90.2538L15.0859 85.7898L10.6185 85.7898L10.6185 90.2538L15.0859 90.2538Z" />
        <path d="M15.0859 95.6283L15.0859 91.1643L10.6185 91.1643L10.6185 95.6283L15.0859 95.6283Z" />
        <path d="M15.0859 100.996L15.0859 96.5325L10.6185 96.5325L10.6185 100.996L15.0859 100.996Z" />
        <path d="M15.0859 106.371L15.0859 101.907L10.6185 101.907L10.6185 106.371L15.0859 106.371Z" />
        <path d="M15.0859 111.746L15.0859 107.281L10.6185 107.281L10.6185 111.746L15.0859 111.746Z" />
        <path d="M15.0859 117.12L15.0859 112.656L10.6185 112.656L10.6185 117.12L15.0859 117.12Z" />
        <path d="M15.0859 122.495L15.0859 118.031L10.6185 118.031L10.6185 122.495L15.0859 122.495Z" />
        <path d="M15.0859 127.869L15.0859 123.405L10.6185 123.405L10.6185 127.869L15.0859 127.869Z" />
        <path d="M4.46777 138.846L4.46777 134.382L0.000258923 134.382L0.000258727 138.846L4.46777 138.846Z" />
        <path d="M4.46777 149.589L4.46777 145.125L0.000258923 145.125L0.000258727 149.589L4.46777 149.589Z" />
        <path d="M4.46777 154.963L4.46777 150.499L0.000258923 150.499L0.000258727 154.963L4.46777 154.963Z" />
        <path d="M4.46777 165.712L4.46777 161.248L0.000258923 161.248L0.000258727 165.712L4.46777 165.712Z" />
        <path d="M4.46777 187.204L4.46777 182.74L0.000258923 182.74L0.000258727 187.204L4.46777 187.204Z" />
        <path d="M9.77686 138.846L9.77686 134.382L5.30944 134.382L5.30944 138.846L9.77686 138.846Z" />
        <path d="M9.77686 144.22L9.77686 139.756L5.30944 139.756L5.30944 144.22L9.77686 144.22Z" />
        <path d="M9.77686 154.963L9.77686 150.499L5.30944 150.499L5.30944 154.963L9.77686 154.963Z" />
        <path d="M9.77686 160.338L9.77686 155.874L5.30944 155.874L5.30944 160.338L9.77686 160.338Z" />
        <path d="M9.77686 165.712L9.77686 161.248L5.30944 161.248L5.30944 165.712L9.77686 165.712Z" />
        <path d="M9.77686 171.087L9.77686 166.623L5.30944 166.623L5.30944 171.087L9.77686 171.087Z" />
        <path d="M9.77686 181.83L9.77686 177.366L5.30944 177.366L5.30944 181.83L9.77686 181.83Z" />
        <path d="M15.0859 138.846L15.0859 134.382L10.6185 134.382L10.6185 138.846L15.0859 138.846Z" />
        <path d="M15.0859 149.589L15.0859 145.125L10.6185 145.125L10.6185 149.589L15.0859 149.589Z" />
        <path d="M15.0859 154.963L15.0859 150.499L10.6185 150.499L10.6185 154.963L15.0859 154.963Z" />
        <path d="M15.0859 160.338L15.0859 155.874L10.6185 155.874L10.6185 160.338L15.0859 160.338Z" />
        <path d="M15.0859 171.087L15.0859 166.623L10.6185 166.623L10.6185 171.087L15.0859 171.087Z" />
        <path d="M15.0859 176.455L15.0859 171.991L10.6185 171.991L10.6185 176.455L15.0859 176.455Z" />
        <path d="M15.0859 187.204L15.0859 182.74L10.6185 182.74L10.6185 187.204L15.0859 187.204Z" />
        <path d="M4.46777 198.187L4.46777 193.723L0.000258923 193.723L0.000258727 198.187L4.46777 198.187Z" />
        <path d="M9.77686 192.813L9.77686 188.349L5.30944 188.349L5.30944 192.813L9.77686 192.813Z" />
        <path d="M9.77686 208.93L9.77686 204.466L5.30944 204.466L5.30944 208.93L9.77686 208.93Z" />
        <path d="M9.77686 225.054L9.77686 220.59L5.30944 220.59L5.30944 225.054L9.77686 225.054Z" />
        <path d="M15.0859 203.555L15.0859 199.091L10.6185 199.091L10.6185 203.555L15.0859 203.555Z" />
        <path d="M15.0859 219.679L15.0859 215.215L10.6185 215.215L10.6185 219.679L15.0859 219.679Z" />
    </symbol>
    <symbol id="x" viewBox="0 0 34 34">
        <path d="M20.1648 14.3967L32.5499 0H29.615L18.861 12.5004L10.2718 0H0.365234L13.3538 18.9029L0.365234 34H3.30027L14.6568 20.7991L23.7276 34H33.6341L20.164 14.3967H20.1648ZM16.1448 19.0694L14.8288 17.1871L4.35781 2.20944H8.86586L17.3161 14.2969L18.6321 16.1792L29.6164 31.891H25.1083L16.1448 19.0701V19.0694Z" />
    </symbol>
    <symbol id="discord" viewBox="0 0 40 40">
        <path d="M33.8618 7.28324C31.3123 6.11348 28.5784 5.2516 25.7199 4.75793C25.6679 4.7484 25.6158 4.77223 25.589 4.81981C25.2374 5.4452 24.8479 6.26098 24.5752 6.90223C21.5008 6.44192 18.442 6.44192 15.4306 6.90223C15.1578 6.24676 14.7542 5.4452 14.401 4.81981C14.3742 4.77379 14.3222 4.74996 14.2701 4.75793C11.4133 5.24996 8.67936 6.11184 6.12826 7.28324C6.10615 7.29277 6.08725 7.30863 6.07467 7.32926C0.889043 15.0765 -0.531582 22.6334 0.165293 30.0965C0.168418 30.133 0.188965 30.1679 0.217324 30.1901C3.63865 32.7027 6.95287 34.228 10.2054 35.2391C10.2575 35.255 10.3126 35.236 10.3458 35.1931C11.1151 34.1424 11.801 33.0345 12.389 31.8694C12.4237 31.8012 12.3906 31.7203 12.3197 31.6932C11.2318 31.2806 10.1959 30.7774 9.19943 30.2061C9.1206 30.16 9.11428 30.0473 9.18686 29.9933C9.39654 29.8362 9.60631 29.6727 9.80654 29.5076C9.84279 29.4775 9.89326 29.4711 9.93584 29.4901C16.4821 32.4789 23.5692 32.4789 30.0382 29.4901C30.0808 29.4695 30.1312 29.4759 30.169 29.506C30.3694 29.6711 30.579 29.8361 30.7903 29.9932C30.8628 30.0472 30.858 30.16 30.7793 30.206C29.7828 30.7885 28.7469 31.2805 27.6575 31.6916C27.5865 31.7186 27.555 31.8011 27.5897 31.8693C28.1904 33.0328 28.8763 34.1407 29.6315 35.1914C29.663 35.2359 29.7197 35.255 29.7718 35.239C33.0401 34.228 36.3544 32.7026 39.7757 30.19C39.8057 30.1679 39.8246 30.1345 39.8277 30.098C40.6618 21.4698 38.4308 13.9749 33.9137 7.33074C33.9027 7.30863 33.8838 7.29277 33.8618 7.28324ZM13.3668 25.5522C11.3959 25.5522 9.77193 23.7429 9.77193 21.5207C9.77193 19.2985 11.3644 17.4891 13.3668 17.4891C15.3848 17.4891 16.9931 19.3144 16.9615 21.5207C16.9615 23.7429 15.369 25.5522 13.3668 25.5522ZM26.6579 25.5522C24.6872 25.5522 23.0632 23.7429 23.0632 21.5207C23.0632 19.2985 24.6556 17.4891 26.6579 17.4891C28.6761 17.4891 30.2843 19.3144 30.2528 21.5207C30.2528 23.7429 28.6762 25.5522 26.6579 25.5522Z"/>
    </symbol>
    <symbol id="youtube" viewBox="0 0 576 512">
        <path d="M549.7 124.1c-6.3-23.7-24.8-42.3-48.3-48.6C458.8 64 288 64 288 64S117.2 64 74.6 75.5c-23.5 6.3-42 24.9-48.3 48.6-11.4 42.9-11.4 132.3-11.4 132.3s0 89.4 11.4 132.3c6.3 23.7 24.8 41.5 48.3 47.8C117.2 448 288 448 288 448s170.8 0 213.4-11.5c23.5-6.3 42-24.2 48.3-47.8 11.4-42.9 11.4-132.3 11.4-132.3s0-89.4-11.4-132.3zm-317.5 213.5V175.2l142.7 81.2-142.7 81.2z"/>
    </symbol>
    <symbol id="instagram" viewBox="0 0 448 512">
        <path d="M224.1 141c-63.6 0-114.9 51.3-114.9 114.9s51.3 114.9 114.9 114.9S339 319.5 339 255.9 287.7 141 224.1 141zm0 189.6c-41.1 0-74.7-33.5-74.7-74.7s33.5-74.7 74.7-74.7 74.7 33.5 74.7 74.7-33.6 74.7-74.7 74.7zm146.4-194.3c0 14.9-12 26.8-26.8 26.8-14.9 0-26.8-12-26.8-26.8s12-26.8 26.8-26.8 26.8 12 26.8 26.8zm76.1 27.2c-1.7-35.9-9.9-67.7-36.2-93.9-26.2-26.2-58-34.4-93.9-36.2-37-2.1-147.9-2.1-184.9 0-35.8 1.7-67.6 9.9-93.9 36.1s-34.4 58-36.2 93.9c-2.1 37-2.1 147.9 0 184.9 1.7 35.9 9.9 67.7 36.2 93.9s58 34.4 93.9 36.2c37 2.1 147.9 2.1 184.9 0 35.9-1.7 67.7-9.9 93.9-36.2 26.2-26.2 34.4-58 36.2-93.9 2.1-37 2.1-147.8 0-184.8zM398.8 388c-7.8 19.6-22.9 34.7-42.6 42.6-29.5 11.7-99.5 9-132.1 9s-102.7 2.6-132.1-9c-19.6-7.8-34.7-22.9-42.6-42.6-11.7-29.5-9-99.5-9-132.1s-2.6-102.7 9-132.1c7.8-19.6 22.9-34.7 42.6-42.6 29.5-11.7 99.5-9 132.1-9s102.7-2.6 132.1 9c19.6 7.8 34.7 22.9 42.6 42.6 11.7 29.5 9 99.5 9 132.1s2.7 102.7-9 132.1z"/>
    </symbol>
    <symbol id="facebook" viewBox="0 0 512 512">
        <path d="M512 256C512 114.6 397.4 0 256 0S0 114.6 0 256C0 376 82.7 476.8 194.2 504.5V334.2H141.4V256h52.8V222.3c0-87.1 39.4-127.5 125-127.5c16.2 0 44.2 3.2 55.7 6.4V172c-6-.6-16.5-1-29.6-1c-42 0-58.2 15.9-58.2 57.2V256h83.6l-14.4 78.2H287V510.1C413.8 494.8 512 386.9 512 256h0z"/>
    </symbol>
    <symbol id="wewetap" viewBox="0 0 742 771">
        <path d="M368.477 44.6144C445.082 44.6144 506.645 48.2017 562.245 55.8995C609.065 62.3866 646.79 73.044 677.549 88.4993C692.232 95.8832 694.195 103.745 694.944 106.72C697.311 116.211 696.877 129.245 696.427 143.057C696.262 148.168 696.083 153.445 696.038 158.796L693.685 458.711C693.565 474.824 693.476 490.922 693.401 507.035C693.236 539.067 693.071 572.175 692.532 604.61C692.067 632.666 689.835 664.862 676.92 690.93C664.904 715.19 641.636 722.394 624.227 724.158C610.878 725.518 595.88 726.176 578.411 726.176C561.975 726.176 544.835 725.608 528.249 725.04C513.716 724.547 498.674 724.053 483.827 723.919L191.325 721.258L188.688 721.228C187.294 721.228 185.901 721.213 184.493 721.213C177.781 721.213 170.949 721.348 164.341 721.482C157.824 721.617 151.097 721.737 144.595 721.737C122.585 721.737 98.0892 720.302 83.3015 709.719C64.0641 695.938 55.3144 672.172 51.374 654.683C44.557 624.445 44.9465 591.95 45.366 557.542L45.4559 549.859C45.9803 502.447 46.9991 454.272 48.5273 406.68C51.4788 314.082 56.468 219.332 63.3599 124.776C76.6044 121.981 88.2457 113.207 94.3585 100.367C114.285 58.5153 171.248 48.5605 250.655 46.5127C288.291 45.5411 328.384 44.5845 368.462 44.5845M368.477 0.191406C328.654 0.191406 288.905 1.10319 249.531 2.13454C179.069 3.9581 87.9011 10.5049 54.1757 81.3396C52.0332 80.8314 49.7858 80.5773 47.5384 80.5773C34.8034 80.5773 21.4391 88.7086 20.2255 104.941C12.6894 204.938 7.25074 305.069 4.05948 405.29C2.53127 453.315 1.49749 501.355 0.973105 549.396C0.553597 587.87 -0.555113 626.643 7.98487 664.444C15.1614 696.252 30.3836 726.46 57.3819 745.816C82.028 763.469 113.641 766.174 144.64 766.174C158.274 766.174 171.788 765.651 184.538 765.651C185.811 765.651 187.07 765.651 188.328 765.666C286.703 766.563 385.092 767.46 483.467 768.342C514.645 768.626 546.708 770.599 578.441 770.599C595.371 770.599 612.196 770.031 628.751 768.357C666.732 764.5 699.588 745.458 716.848 710.616C732.954 678.121 736.46 641.112 737.059 605.343C737.868 556.585 737.838 507.813 738.213 459.055C738.992 359.088 739.771 259.121 740.565 159.14C740.73 138.513 743.202 116.182 738.153 95.9729C732.67 74.0006 717.387 58.7694 697.581 48.8146C657.473 28.6658 612.6 18.0084 568.372 11.895C502.614 2.79222 435.463 0.191406 368.477 0.191406Z"/>
        <path d="M150.226 289.295C157.649 325.317 163.064 361.727 186.85 391.046C195.701 401.944 217.702 399.332 223.444 386.314C238.304 352.621 251.767 318.405 263.742 283.637C286.561 320.39 308.532 357.682 327.513 396.63C335.918 413.872 366.83 410.692 370.102 391.046C383.907 308.164 396.968 225.147 409.27 142.026C411.114 129.546 406.161 116.887 392.996 113.259C382.003 110.229 366.19 117.021 364.33 129.591C355.256 190.857 345.766 252.063 335.888 313.195C317.219 280.621 297.137 248.854 276.996 217.161C266.211 200.172 240.268 203.113 234.407 222.744C225.169 253.75 214.741 284.383 203.079 314.538C199.405 298.311 196.177 281.965 192.844 265.648C185.422 229.268 178.371 192.798 171.662 156.268C166.232 126.71 121.308 139.235 126.722 168.703C134.13 208.98 141.94 249.167 150.196 289.28L150.226 289.295Z"/>
        <path d="M612.041 360.692C572.854 363.094 534.668 359.06 497.271 348.559L502.065 294.394C528.508 298.295 555.134 300.075 581.941 299.259C612.451 298.325 612.587 251.857 581.941 252.792C556.469 253.563 531.254 252.213 506.161 248.224L509.787 207.214C545.015 207.155 580.212 208.089 615.394 210.121C645.949 211.886 645.843 165.419 615.394 163.654C572.991 161.207 530.541 160.273 488.077 160.866C474.408 161.059 465.442 171.411 464.319 184.092C459.009 244.086 453.699 304.079 448.389 364.088C447.373 375.538 453.775 382.538 462.18 385.164C464.152 386.558 466.428 387.73 469.068 388.605C515.006 403.792 563.645 410.11 612.056 407.159C642.429 405.305 642.657 358.823 612.056 360.692H612.041Z"/>
        <path d="M369.659 447.105C357.855 492.054 343.443 536.217 326.423 579.386C316.066 541.361 305.724 503.351 295.368 465.326C289.172 442.565 256.323 443.154 249.825 465.326C241.654 493.215 232.654 520.832 222.901 548.193C211.685 514.422 200.454 480.635 189.238 446.864C179.695 418.145 134.077 430.453 143.695 459.428C161.981 514.452 180.268 569.491 198.554 624.515C206.363 648.045 235.443 645.677 244.097 624.515C253.549 601.377 262.398 578.028 270.689 554.468C280.006 588.692 289.323 622.901 298.639 657.125C303.614 675.391 332.981 681.816 341.8 662.766C372.131 597.274 396.87 529.49 415.201 459.67C422.935 430.227 377.392 417.678 369.659 447.105Z"/>
        <path d="M592.952 444.395C553.686 442.158 514.737 437.7 476.015 430.812C467.439 429.291 458.696 431.423 452.858 437.015C447.791 440.742 444.085 446.467 443.419 454.221C438.881 507.463 435.448 561.109 435.403 614.561C435.403 625.982 437.429 637.194 447.11 644.619C458 652.968 471.538 651.776 484.546 651.761C512.907 651.761 541.252 651.761 569.613 651.746C600.107 651.746 600.152 605.033 569.613 605.033C540.935 605.033 511.727 606.435 482.928 605.555C482.958 603.856 482.988 602.171 483.018 600.471C483.17 592.956 483.351 585.457 483.578 577.942C483.593 577.331 483.623 576.735 483.639 576.123H546.259C576.753 576.123 576.798 529.411 546.259 529.411H485.59C486.452 512.935 487.571 496.475 488.781 480.029C523.283 485.367 558.027 489.109 592.922 491.092C623.385 492.822 623.279 446.11 592.922 444.38L592.952 444.395Z"/>
    </symbol>
    <symbol id="done" viewBox="0 0 512 512">
        <path d="M256 48a208 208 0 1 1 0 416 208 208 0 1 1 0-416zm0 464A256 256 0 1 0 256 0a256 256 0 1 0 0 512zM369 209c9.4-9.4 9.4-24.6 0-33.9s-24.6-9.4-33.9 0l-111 111-47-47c-9.4-9.4-24.6-9.4-33.9 0s-9.4 24.6 0 33.9l64 64c9.4 9.4 24.6 9.4 33.9 0L369 209z"/>
    </symbol>
    <symbol id="ship" viewBox="70 0 500 480">
        <defs>
            <linearGradient id="thorch-gradient">
              <stop stop-color="#23ccf6" />
              <stop stop-color="#32f794" />
            </linearGradient>
        </defs>
        <g transform="matrix(1.1 0 0 1.1 321.94 242.61)"  >
            <g>
                <g transform="matrix(-8.38 -2.09 -2.09 8.38 117.41 0.09)"  >
                    <path
                        style="fill: url(#thorch-gradient) #23ccf6;"
                        transform=" translate(-18.34, -21.08)" d="M 0 42.1505376 L 29.3660229 29.7578443 L 20.0759286 20.3135121 L 0 42.1505376 Z M 10.7858343 10.8822386 L 20.0759286 20.3135121 L 36.6709677 -3.63797881e-12 L 10.7858343 10.8822386 Z" stroke-linecap="round" />
                </g>
                <g transform="matrix(8.39 -2.03 2.03 8.39 -118.34 -0.84)"  >
                    <path
                        style="fill: url(#thorch-gradient) #23ccf6;"
                        transform=" translate(-18.34, -21.08)" d="M 0 42.1505376 L 29.3660229 29.7578443 L 20.0759286 20.3135121 L 0 42.1505376 Z M 10.7858343 10.8822386 L 20.0759286 20.3135121 L 36.6709677 -3.63797881e-12 L 10.7858343 10.8822386 Z" stroke-linecap="round" />
                </g>
            </g>
        </g>
    </symbol>
    <symbol id="telegram" viewBox="0 0 50 50">
        <path xmlns="http://www.w3.org/2000/svg" fill-rule="evenodd" clip-rule="evenodd" d="M48.1491 9.36373C48.8114 6.13504 45.6401 3.45194 42.5658 4.63979L4.87992 19.2002C1.44662 20.5267 1.29364 25.3277 4.6355 26.87L12.8424 30.6579L16.7466 44.3223C16.9494 45.0321 17.5126 45.5817 18.2272 45.7669C18.9417 45.9519 19.7009 45.7452 20.2229 45.2231L26.2368 39.2092L34.6612 45.5275C37.1066 47.3615 40.6287 46.0256 41.2428 43.0313L48.1491 9.36373ZM6.38159 23.0869L44.0674 8.52646L37.1612 42.1942L27.2914 34.7917C26.462 34.1696 25.3014 34.2521 24.5683 34.9852L21.9924 37.561L22.7664 33.3046L37.9312 18.1399C38.6693 17.4018 38.7472 16.2316 38.1137 15.4021C37.4801 14.5727 36.3308 14.34 35.4245 14.8579L14.4815 26.8252L6.38159 23.0869ZM17.035 30.165L18.2983 34.5867L18.7833 31.919C18.8591 31.5021 19.0603 31.1181 19.3599 30.8185L23.9847 26.194L17.035 30.165Z"/>
    </symbol>
    <symbol id="meme" viewBox="0 0 318 319">
        <rect width="318" height="319" rx="159" fill="#FE0000"/>
        <path d="M20 192.283H18.7175V191V178.196V176.913H20H31.5218L31.5218 165.399L31.5218 152.601V151.319H32.8043H44.3189L44.3189 139.797V138.515H45.6014H57.116V127V125.718H58.3985H71.2029L84 125.718H96.8043H109.601H122.406H123.688V127L123.688 138.515H135.203H136.485V139.797V151.319H148.007H149.29V152.601V165.399V176.913H156.988H160.804H168.51V165.399V152.601V151.319H169.793H181.307V139.797V138.515H182.59H194.112V127V125.718H195.394H208.191H220.996H233.793H246.59H259.394H260.677V127V138.515H272.191H273.474V139.797V151.319H284.996H286.278V152.601V165.399V176.913H297.793H299.075V178.196V191V192.283H297.793H284.996H272.191H259.394H246.59H233.793H220.996H208.191H195.394H182.59H169.793H160.804H156.988H148.007L135.203 192.283H122.406H109.601H96.8043H84H71.2029H58.3985H45.6014H32.8043H20Z" fill="black" stroke="#FE0000" stroke-width="2.56501"/>
        <path d="M58.3977 178.195H45.6006V165.398H58.3977V178.195Z" fill="white"/>
        <path d="M109.602 152.6H96.8047V139.803H109.602V152.6Z" fill="white"/>
        <path d="M96.7981 165.397H84.001V152.6H96.7981V165.397Z" fill="white"/>
        <path d="M71.1936 165.397H58.3965V152.6H71.1936V165.397Z" fill="white"/>
        <path d="M83.9973 152.6H71.2002V139.803H83.9973V152.6Z" fill="white"/>
        <path d="M122.399 165.398H109.602V152.6H122.399V165.398Z" fill="white"/>
        <path d="M135.203 178.195H122.406V165.398H135.203V178.195Z" fill="white"/>
        <path d="M272.194 178.195H259.396V165.398H272.194V178.195Z" fill="white"/>
        <path d="M220.988 152.6H208.191V139.803H220.988V152.6Z" fill="white"/>
        <path d="M233.792 165.397H220.995V152.6H233.792V165.397Z" fill="white"/>
        <path d="M259.39 165.397H246.593V152.6H259.39V165.397Z" fill="white"/>
        <path d="M246.589 152.6H233.792V139.803H246.589V152.6Z" fill="white"/>
        <path d="M208.193 165.398H195.396V152.6H208.193V165.398Z" fill="white"/>
        <path d="M195.384 178.195H182.587V165.398H195.384V178.195Z" fill="white"/>
    </symbol>
    <symbol id="wewe" viewBox="0 0 1000 1000">
        <g transform="matrix(3.1268 0 0 -3.1268 497.1612 498.7246)" id="738680">
            <g vector-effect="non-scaling-stroke">
                <g transform="matrix(1 0 0 1 0 0)">
                    <rect style="fill: rgb(51,230,191);" x="-159" y="-159.5" rx="159" ry="159" width="318" height="319"/>
                </g>
                <g transform="matrix(1 0 0 1 -0.1038 -0.4995)">
                    <path style="fill: black;" transform=" translate(-158.8962, -159.0005)" d="M 20 192.283 H 18.7175 V 191 V 178.196 V 176.913 H 20 H 31.5218 L 31.5218 165.399 L 31.5218 152.601 V 151.319 H 32.8043 H 44.3189 L 44.3189 139.797 V 138.515 H 45.6014 H 57.116 V 127 V 125.718 H 58.3985 H 71.2029 L 84 125.718 H 96.8043 H 109.601 H 122.406 H 123.688 V 127 L 123.688 138.515 H 135.203 H 136.485 V 139.797 V 151.319 H 148.007 H 149.29 V 152.601 V 165.399 V 176.913 H 156.988 H 160.804 H 168.51 V 165.399 V 152.601 V 151.319 H 169.793 H 181.307 V 139.797 V 138.515 H 182.59 H 194.112 V 127 V 125.718 H 195.394 H 208.191 H 220.996 H 233.793 H 246.59 H 259.394 H 260.677 V 127 V 138.515 H 272.191 H 273.474 V 139.797 V 151.319 H 284.996 H 286.278 V 152.601 V 165.399 V 176.913 H 297.793 H 299.075 V 178.196 V 191 V 192.283 H 297.793 H 284.996 H 272.191 H 259.394 H 246.59 H 233.793 H 220.996 H 208.191 H 195.394 H 182.59 H 169.793 H 160.804 H 156.988 H 148.007 L 135.203 192.283 H 122.406 H 109.601 H 96.8043 H 84 H 71.2029 H 58.3985 H 45.6014 H 32.8043 H 20 Z" stroke-linecap="round"/>
                </g>
                <g transform="matrix(1 0 0 1 -107.0008 12.2965)">
                    <path style="fill: white;" transform=" translate(-51.9992, -171.7965)" d="M 58.3977 178.195 H 45.6006 V 165.398 H 58.3977 V 178.195 Z" stroke-linecap="round"/>
                </g>
                <g transform="matrix(1 0 0 1 -55.7966 -13.2985)">
                    <path style="fill: white;" transform=" translate(-103.2034, -146.2015)" d="M 109.602 152.6 H 96.8047 V 139.803 H 109.602 V 152.6 Z" stroke-linecap="round"/>
                </g>
                <g transform="matrix(1 0 0 1 -68.6004 -0.5015)">
                    <path style="fill: white;" transform=" translate(-90.3996, -158.9985)" d="M 96.7981 165.397 H 84.001 V 152.6 H 96.7981 V 165.397 Z" stroke-linecap="round"/>
                </g>
                <g transform="matrix(1 0 0 1 -94.2049 -0.5015)">
                    <path style="fill: white;" transform=" translate(-64.7951, -158.9985)" d="M 71.1936 165.397 H 58.3965 V 152.6 H 71.1936 V 165.397 Z" stroke-linecap="round"/>
                </g>
                <g transform="matrix(1 0 0 1 -81.4013 -13.2985)">
                    <path style="fill: white;" transform=" translate(-77.5987, -146.2015)" d="M 83.9973 152.6 H 71.2002 V 139.803 H 83.9973 V 152.6 Z" stroke-linecap="round"/>
                </g>
                <g transform="matrix(1 0 0 1 -42.9995 -0.501)">
                    <path style="fill: white;" transform=" translate(-116.0005, -158.999)" d="M 122.399 165.398 H 109.602 V 152.6 H 122.399 V 165.398 Z" stroke-linecap="round"/>
                </g>
                <g transform="matrix(1 0 0 1 -30.1955 12.2965)">
                    <path style="fill: white;" transform=" translate(-128.8045, -171.7965)" d="M 135.203 178.195 H 122.406 V 165.398 H 135.203 V 178.195 Z" stroke-linecap="round"/>
                </g>
                <g transform="matrix(1 0 0 1 106.795 12.2965)">
                    <path style="fill: white;" transform=" translate(-265.795, -171.7965)" d="M 272.194 178.195 H 259.396 V 165.398 H 272.194 V 178.195 Z" stroke-linecap="round"/>
                </g>
                <g transform="matrix(1 0 0 1 55.5895 -13.2985)">
                    <path style="fill: white;" transform=" translate(-214.5895, -146.2015)" d="M 220.988 152.6 H 208.191 V 139.803 H 220.988 V 152.6 Z" stroke-linecap="round"/>
                </g>
                <g transform="matrix(1 0 0 1 68.3935 -0.5015)">
                    <path style="fill: white;" transform=" translate(-227.3935, -158.9985)" d="M 233.792 165.397 H 220.995 V 152.6 H 233.792 V 165.397 Z" stroke-linecap="round"/>
                </g>
                <g transform="matrix(1 0 0 1 93.9915 -0.5015)">
                    <path style="fill: white;" transform=" translate(-252.9915, -158.9985)" d="M 259.39 165.397 H 246.593 V 152.6 H 259.39 V 165.397 Z" stroke-linecap="round"/>
                </g>
                <g transform="matrix(1 0 0 1 81.1905 -13.2985)">
                    <path style="fill: white;" transform=" translate(-240.1905, -146.2015)" d="M 246.589 152.6 H 233.792 V 139.803 H 246.589 V 152.6 Z" stroke-linecap="round"/>
                </g>
                <g transform="matrix(1 0 0 1 42.7945 -0.501)">
                    <path style="fill: white;" transform=" translate(-201.7945, -158.999)" d="M 208.193 165.398 H 195.396 V 152.6 H 208.193 V 165.398 Z" stroke-linecap="round"/>
                </g>
                <g transform="matrix(1 0 0 1 29.9855 12.2965)">
                    <path style="fill: white;" transform=" translate(-188.9855, -171.7965)" d="M 195.384 178.195 H 182.587 V 165.398 H 195.384 V 178.195 Z" stroke-linecap="round"/>
                </g>
            </g>
        </g>
    </symbol>
    <symbol id="dude" viewBox="0 0 603 622">
        <path d="M131.912 402.598L129.658 401.74L129.884 404.141C130.706 412.845 130.634 427.301 127.73 442.239C124.822 457.2 119.112 472.451 108.807 482.949C95.5454 496.461 86.4594 506.922 81.1877 514.925C78.5536 518.924 76.8166 522.39 76.015 525.377C75.2095 528.379 75.3151 531.038 76.5755 533.244C78.6956 536.954 82.4006 542.067 91.4062 546.472C100.347 550.846 114.449 554.494 137.312 555.499L138.25 555.54L138.697 554.714C141.999 548.618 146.765 537.817 150.407 525.113C154.047 512.418 156.594 497.72 155.372 483.868C152.964 456.578 146.35 421.709 143.345 407.686L143.174 406.889L142.412 406.598L131.912 402.598Z" fill="#33E6BF" stroke="black" stroke-width="3"/>
        <path d="M473.663 401.551L473.664 401.525V401.5V395L470.727 394.572L455.227 446.572L455.212 446.621L455.201 446.671C443.399 499.207 456.415 537.15 465.85 552.026L465.794 552.041L466.229 552.659C466.201 552.728 466.176 552.803 466.156 552.883C465.945 553.756 466.503 554.324 466.745 554.507C466.984 554.688 467.229 554.771 467.343 554.806C467.485 554.851 467.628 554.881 467.751 554.903C468 554.947 468.281 554.976 468.557 554.996L471.791 555.227L470.885 553.991C473.371 553.626 477.813 553.131 485.291 552.495C509.42 550.441 521.894 534.516 524.577 527.005C525.249 525.123 525.687 523.14 525.445 520.799C525.206 518.477 524.311 515.926 522.521 512.867C518.969 506.796 511.707 498.421 498.205 485.42C487.722 475.325 481.389 459.339 477.778 443.247C474.176 427.194 473.334 411.273 473.663 401.551Z" fill="#33E6BF" stroke="black" stroke-width="3"/>
        <mask id="mask0_2563_92" style="mask-type:alpha" maskUnits="userSpaceOnUse" x="56" y="0" width="491" height="622">
            <mask id="path-3-outside-1_2563_92" maskUnits="userSpaceOnUse" x="56" y="0" width="491" height="622" fill="black">
                <rect fill="white" x="56" width="491" height="622"/>
                <path fill-rule="evenodd" clip-rule="evenodd" d="M471.074 418.852C516.073 374.828 544 313.426 544 245.5C544 111.571 435.429 3 301.5 3C167.571 3 59 111.571 59 245.5C59 315.07 88.296 377.798 135.225 422.019C143.22 459.914 153.805 523.925 145.037 540C141.128 547.167 136.759 553.538 132.83 559.269C124.698 571.129 118.447 580.247 122.037 588C126.037 596.639 153.037 633 208.037 613C231.585 604.437 246.063 597.02 254.537 591.361C275.87 599.482 325.637 610.85 354.037 591.361C378.204 605.574 433.937 629.2 463.537 610C493.641 590.473 481.378 573.262 473.068 561.601C471.165 558.93 469.469 556.55 468.537 554.5C463.57 543.573 448.242 461.6 471.074 418.852Z"/>
            </mask>
            <path fill-rule="evenodd" clip-rule="evenodd" d="M471.074 418.852C516.073 374.828 544 313.426 544 245.5C544 111.571 435.429 3 301.5 3C167.571 3 59 111.571 59 245.5C59 315.07 88.296 377.798 135.225 422.019C143.22 459.914 153.805 523.925 145.037 540C141.128 547.167 136.759 553.538 132.83 559.269C124.698 571.129 118.447 580.247 122.037 588C126.037 596.639 153.037 633 208.037 613C231.585 604.437 246.063 597.02 254.537 591.361C275.87 599.482 325.637 610.85 354.037 591.361C378.204 605.574 433.937 629.2 463.537 610C493.641 590.473 481.378 573.262 473.068 561.601C471.165 558.93 469.469 556.55 468.537 554.5C463.57 543.573 448.242 461.6 471.074 418.852Z" fill="#33E6BF"/>
            <path d="M471.074 418.852L468.976 416.708L468.645 417.031L468.427 417.439L471.074 418.852ZM135.225 422.019L138.16 421.4L137.966 420.48L137.282 419.836L135.225 422.019ZM145.037 540L142.403 538.563L145.037 540ZM132.83 559.269L135.304 560.966L132.83 559.269ZM122.037 588L124.759 586.739L122.037 588ZM208.037 613L209.062 615.819H209.062L208.037 613ZM254.537 591.361L255.604 588.558L254.158 588.007L252.871 588.867L254.537 591.361ZM354.037 591.361L355.558 588.775L353.913 587.808L352.339 588.888L354.037 591.361ZM463.537 610L461.904 607.483L463.537 610ZM473.068 561.601L470.625 563.342L473.068 561.601ZM468.537 554.5L465.806 555.741H465.806L468.537 554.5ZM541 245.5C541 312.586 513.422 373.225 468.976 416.708L473.172 420.997C518.724 376.432 547 314.265 547 245.5H541ZM301.5 6C433.772 6 541 113.228 541 245.5H547C547 109.914 437.086 0 301.5 0V6ZM62 245.5C62 113.228 169.228 6 301.5 6V0C165.914 0 56 109.914 56 245.5H62ZM137.282 419.836C90.9299 376.158 62 314.21 62 245.5H56C56 315.931 85.6622 379.438 133.167 424.203L137.282 419.836ZM147.671 541.437C150.252 536.703 151.211 529.008 151.327 520.152C151.445 511.122 150.68 500.292 149.398 488.858C146.834 465.979 142.169 440.4 138.16 421.4L132.289 422.639C136.276 441.533 140.901 466.907 143.436 489.526C144.704 500.842 145.441 511.396 145.327 520.074C145.212 528.926 144.206 535.259 142.403 538.563L147.671 541.437ZM135.304 560.966C139.225 555.248 143.678 548.757 147.671 541.437L142.403 538.563C138.577 545.577 134.294 551.829 130.356 557.573L135.304 560.966ZM124.759 586.739C123.498 584.015 123.794 580.801 125.773 576.406C127.769 571.973 131.185 566.973 135.304 560.966L130.356 557.573C126.342 563.426 122.567 568.914 120.302 573.943C118.02 579.01 116.986 584.231 119.315 589.261L124.759 586.739ZM207.012 610.181C180.304 619.893 160.7 615.856 147.344 608.603C133.827 601.263 126.509 590.518 124.759 586.739L119.315 589.261C121.565 594.121 129.747 605.875 144.48 613.876C159.374 621.964 180.77 626.107 209.062 615.819L207.012 610.181ZM252.871 588.867C244.67 594.343 230.434 601.663 207.012 610.181L209.062 615.819C232.736 607.211 247.457 599.697 256.203 593.856L252.871 588.867ZM352.339 588.888C338.983 598.053 320.282 600.126 301.865 598.724C283.535 597.328 266.043 592.531 255.604 588.558L253.47 594.165C264.364 598.312 282.422 603.26 301.409 604.706C320.309 606.146 340.69 604.159 355.734 593.835L352.339 588.888ZM461.904 607.483C448.226 616.356 427.996 615.548 407.493 610.304C387.17 605.106 367.456 595.773 355.558 588.775L352.516 593.947C364.785 601.163 385.021 610.749 406.006 616.117C426.811 621.439 449.248 622.844 465.169 612.517L461.904 607.483ZM470.625 563.342C474.891 569.328 479.412 575.818 479.71 582.976C479.99 589.699 476.485 598.025 461.904 607.483L465.169 612.517C480.693 602.447 486.108 592.405 485.705 582.726C485.32 573.481 479.555 565.535 475.511 559.86L470.625 563.342ZM465.806 555.741C466.885 558.115 468.786 560.762 470.625 563.342L475.511 559.86C473.543 557.098 472.053 554.984 471.268 553.259L465.806 555.741ZM468.427 417.439C456.598 439.587 454.782 471.486 456.386 498.785C457.193 512.515 458.877 525.241 460.675 535.238C462.449 545.104 464.389 552.625 465.806 555.741L471.268 553.259C470.201 550.911 468.363 544.088 466.58 534.176C464.821 524.393 463.168 511.905 462.376 498.433C460.783 471.326 462.718 440.865 473.72 420.266L468.427 417.439Z" fill="black" mask="url(#path-3-outside-1_2563_92)"/>
        </mask>
        <g mask="url(#mask0_2563_92)">
            <mask id="path-5-outside-2_2563_92" maskUnits="userSpaceOnUse" x="56" y="0" width="491" height="622" fill="black">
                <rect fill="white" x="56" width="491" height="622"/>
                <path fill-rule="evenodd" clip-rule="evenodd" d="M471.074 418.852C516.073 374.828 544 313.426 544 245.5C544 111.571 435.429 3 301.5 3C167.571 3 59 111.571 59 245.5C59 315.07 88.296 377.798 135.225 422.019C143.22 459.914 153.805 523.925 145.037 540C141.128 547.167 136.759 553.538 132.83 559.269C124.698 571.129 118.447 580.247 122.037 588C126.037 596.639 153.037 633 208.037 613C231.585 604.437 246.063 597.02 254.537 591.361C275.87 599.482 325.637 610.85 354.037 591.361C378.204 605.574 433.937 629.2 463.537 610C493.641 590.473 481.378 573.262 473.068 561.601C471.165 558.93 469.469 556.55 468.537 554.5C463.57 543.573 448.242 461.6 471.074 418.852Z"/>
            </mask>
            <path fill-rule="evenodd" clip-rule="evenodd" d="M471.074 418.852C516.073 374.828 544 313.426 544 245.5C544 111.571 435.429 3 301.5 3C167.571 3 59 111.571 59 245.5C59 315.07 88.296 377.798 135.225 422.019C143.22 459.914 153.805 523.925 145.037 540C141.128 547.167 136.759 553.538 132.83 559.269C124.698 571.129 118.447 580.247 122.037 588C126.037 596.639 153.037 633 208.037 613C231.585 604.437 246.063 597.02 254.537 591.361C275.87 599.482 325.637 610.85 354.037 591.361C378.204 605.574 433.937 629.2 463.537 610C493.641 590.473 481.378 573.262 473.068 561.601C471.165 558.93 469.469 556.55 468.537 554.5C463.57 543.573 448.242 461.6 471.074 418.852Z" fill="#1DCEA7"/>
            <path d="M471.074 418.852L468.976 416.708L468.645 417.031L468.427 417.439L471.074 418.852ZM135.225 422.019L138.16 421.4L137.966 420.48L137.282 419.836L135.225 422.019ZM145.037 540L142.403 538.563L145.037 540ZM132.83 559.269L135.304 560.966L132.83 559.269ZM122.037 588L124.759 586.739L122.037 588ZM208.037 613L209.062 615.819H209.062L208.037 613ZM254.537 591.361L255.604 588.558L254.158 588.007L252.871 588.867L254.537 591.361ZM354.037 591.361L355.558 588.775L353.913 587.808L352.339 588.888L354.037 591.361ZM463.537 610L461.904 607.483L463.537 610ZM473.068 561.601L470.625 563.342L473.068 561.601ZM468.537 554.5L465.806 555.741H465.806L468.537 554.5ZM541 245.5C541 312.586 513.422 373.225 468.976 416.708L473.172 420.997C518.724 376.432 547 314.265 547 245.5H541ZM301.5 6C433.772 6 541 113.228 541 245.5H547C547 109.914 437.086 0 301.5 0V6ZM62 245.5C62 113.228 169.228 6 301.5 6V0C165.914 0 56 109.914 56 245.5H62ZM137.282 419.836C90.9299 376.158 62 314.21 62 245.5H56C56 315.931 85.6622 379.438 133.167 424.203L137.282 419.836ZM147.671 541.437C150.252 536.703 151.211 529.008 151.327 520.152C151.445 511.122 150.68 500.292 149.398 488.858C146.834 465.979 142.169 440.4 138.16 421.4L132.289 422.639C136.276 441.533 140.901 466.907 143.436 489.526C144.704 500.842 145.441 511.396 145.327 520.074C145.212 528.926 144.206 535.259 142.403 538.563L147.671 541.437ZM135.304 560.966C139.225 555.248 143.678 548.757 147.671 541.437L142.403 538.563C138.577 545.577 134.294 551.829 130.356 557.573L135.304 560.966ZM124.759 586.739C123.498 584.015 123.794 580.801 125.773 576.406C127.769 571.973 131.185 566.973 135.304 560.966L130.356 557.573C126.342 563.426 122.567 568.914 120.302 573.943C118.02 579.01 116.986 584.231 119.315 589.261L124.759 586.739ZM207.012 610.181C180.304 619.893 160.7 615.856 147.344 608.603C133.827 601.263 126.509 590.518 124.759 586.739L119.315 589.261C121.565 594.121 129.747 605.875 144.48 613.876C159.374 621.964 180.77 626.107 209.062 615.819L207.012 610.181ZM252.871 588.867C244.67 594.343 230.434 601.663 207.012 610.181L209.062 615.819C232.736 607.211 247.457 599.697 256.203 593.856L252.871 588.867ZM352.339 588.888C338.983 598.053 320.282 600.126 301.865 598.724C283.535 597.328 266.043 592.531 255.604 588.558L253.47 594.165C264.364 598.312 282.422 603.26 301.409 604.706C320.309 606.146 340.69 604.159 355.734 593.835L352.339 588.888ZM461.904 607.483C448.226 616.356 427.996 615.548 407.493 610.304C387.17 605.106 367.456 595.773 355.558 588.775L352.516 593.947C364.785 601.163 385.021 610.749 406.006 616.117C426.811 621.439 449.248 622.844 465.169 612.517L461.904 607.483ZM470.625 563.342C474.891 569.328 479.412 575.818 479.71 582.976C479.99 589.699 476.485 598.025 461.904 607.483L465.169 612.517C480.693 602.447 486.108 592.405 485.705 582.726C485.32 573.481 479.555 565.535 475.511 559.86L470.625 563.342ZM465.806 555.741C466.885 558.115 468.786 560.762 470.625 563.342L475.511 559.86C473.543 557.098 472.053 554.984 471.268 553.259L465.806 555.741ZM468.427 417.439C456.598 439.587 454.782 471.486 456.386 498.785C457.193 512.515 458.877 525.241 460.675 535.238C462.449 545.104 464.389 552.625 465.806 555.741L471.268 553.259C470.201 550.911 468.363 544.088 466.58 534.176C464.821 524.393 463.168 511.905 462.376 498.433C460.783 471.326 462.718 440.865 473.72 420.266L468.427 417.439Z" fill="black" mask="url(#path-5-outside-2_2563_92)"/>
            <g style="mix-blend-mode:overlay">
                <path fill-rule="evenodd" clip-rule="evenodd" d="M457.074 407.852C502.073 363.828 530 302.426 530 234.5C530 100.571 421.429 -8 287.5 -8C153.571 -8 45 100.571 45 234.5C45 304.07 74.296 366.798 121.225 411.019C129.22 448.914 139.805 512.925 131.037 529C127.128 536.167 122.759 542.538 118.83 548.269C110.698 560.129 104.447 569.247 108.037 577C112.037 585.639 139.037 622 194.037 602C217.585 593.437 232.063 586.02 240.537 580.361C261.87 588.482 311.637 599.85 340.037 580.361C364.204 594.574 419.937 618.2 449.537 599C479.641 579.473 467.378 562.262 459.068 550.601C457.165 547.93 455.469 545.55 454.537 543.5C449.57 532.573 434.242 450.6 457.074 407.852Z" fill="#33E6BF"/>
            </g>
        </g>
        <path d="M86.0001 224C86.0002 180.919 107.404 135.141 121.737 114.141C144.937 87.7407 142.737 110.474 138.737 125.141C105 188 109.826 207 105 244C101.348 272 86 269 86.0001 224Z" fill="white"/>
        <path d="M27.7784 206H55.5726H83.3511H111.145H138.924H166.702H194.496H222.275H250.069H277.847H297.358H305.642H325.137H352.931H380.709H408.504H436.282H464.076H491.855H519.649H547.427H575.206H603V233.794H575.206V261.573V289.351H547.427V317.145H519.649V344.924H491.855H464.076H436.282H408.504H380.709V317.145H352.931V289.351H325.137V261.573V233.794H305.642H297.358H277.847V261.573V289.351H250.069V317.145H222.275V344.924H194.496H166.702H138.924H111.145H83.3511V317.145H55.5726V289.351H27.7784V261.573V233.794H0V206H27.7784Z" fill="black"/>
        <path d="M519.648 233.794H547.426V261.572H519.648V233.794Z" fill="white"/>
        <path d="M408.5 289.352H436.279V317.131H408.5V289.352Z" fill="white"/>
        <path d="M436.293 261.574H464.071V289.352H436.293V261.574Z" fill="white"/>
        <path d="M491.872 261.574H519.651V289.352H491.872V261.574Z" fill="white"/>
        <path d="M464.08 289.352H491.859V317.131H464.08V289.352Z" fill="white"/>
        <path d="M380.725 261.574H408.503V289.352H380.725V261.574Z" fill="white"/>
        <path d="M352.932 233.794H380.711V261.572H352.932V233.794Z" fill="white"/>
        <path d="M55.5708 233.794H83.3493V261.572H55.5708V233.794Z" fill="white"/>
        <path d="M166.72 289.352H194.499V317.131H166.72V289.352Z" fill="white"/>
        <path d="M138.922 261.574H166.701V289.352H138.922V261.574Z" fill="white"/>
        <path d="M83.3654 261.574H111.144V289.352H83.3654V261.574Z" fill="white"/>
        <path d="M111.147 289.352H138.925V317.131H111.147V289.352Z" fill="white"/>
        <path d="M194.496 261.574H222.274V289.352H194.496V261.574Z" fill="white"/>
        <path d="M222.294 233.794H250.073V261.572H222.294V233.794Z" fill="white"/>
        <mask id="mask1_2563_92" style="mask-type:alpha" maskUnits="userSpaceOnUse" x="237" y="351" width="129" height="54">
            <path d="M364 352H239C239 352 250 404 302 404C347 404 364 352 364 352Z" fill="#0C4E5B" stroke="black" stroke-width="2"/>
        </mask>
        <g mask="url(#mask1_2563_92)">
            <path d="M364 352H239C239 352 250 404 302 404C347 404 364 352 364 352Z" fill="#0C4E5B" stroke="black" stroke-width="2"/>
            <g style="mix-blend-mode:overlay">
                <circle cx="302" cy="412" r="46" fill="#52C7DD"/>
            </g>
        </g>
    </symbol>
    <symbol id="spotify" viewBox="0 0 48 48">
        <g xmlns="http://www.w3.org/2000/svg" transform="translate(-200.000000, -460.000000)" fill="#00DA5A">
            <path d="M238.16,481.36 C230.48,476.8 217.64,476.32 210.32,478.6 C209.12,478.96 207.92,478.24 207.56,477.16 C207.2,475.96 207.92,474.76 209,474.4 C217.52,471.88 231.56,472.36 240.44,477.64 C241.52,478.24 241.88,479.68 241.28,480.76 C240.68,481.6 239.24,481.96 238.16,481.36 M237.92,488.08 C237.32,488.92 236.24,489.28 235.4,488.68 C228.92,484.72 219.08,483.52 211.52,485.92 C210.56,486.16 209.48,485.68 209.24,484.72 C209,483.76 209.48,482.68 210.44,482.44 C219.2,479.8 230,481.12 237.44,485.68 C238.16,486.04 238.52,487.24 237.92,488.08 M235.04,494.68 C234.56,495.4 233.72,495.64 233,495.16 C227.36,491.68 220.28,490.96 211.88,492.88 C211.04,493.12 210.32,492.52 210.08,491.8 C209.84,490.96 210.44,490.24 211.16,490 C220.28,487.96 228.2,488.8 234.44,492.64 C235.28,493 235.4,493.96 235.04,494.68 M224,460 C210.8,460 200,470.8 200,484 C200,497.2 210.8,508 224,508 C237.2,508 248,497.2 248,484 C248,470.8 237.32,460 224,460"/>
        </g>
    </symbol>
    <symbol id="vult" viewBox="0 0 281 240">
        <g fill="none">
            <path d="M137.136 131.894L52.5191 180.872L40.0869 168.44L114.265 118.596L137.136 131.894Z" fill="url(#paint0_linear_2600_14280)"/>
            <path d="M139.049 135.206L54.324 183.998L58.8744 200.981L139.13 161.662L139.049 135.206Z" fill="url(#paint1_linear_2600_14280)"/>
            <path d="M142.412 135.206L227.137 183.998L222.587 200.98L142.332 161.662L142.412 135.206Z" fill="url(#paint2_linear_2600_14280)"/>
            <path d="M144.325 131.894L228.942 180.872L241.374 168.44L167.196 118.596L144.325 131.894Z" fill="url(#paint3_linear_2600_14280)"/>
            <path d="M142.413 128.274L142.305 30.5047L159.287 25.9541L165.364 115.116L142.413 128.274Z" fill="url(#paint4_linear_2600_14280)"/>
            <path d="M138.587 128.274L138.695 30.5047L121.712 25.9541L115.636 115.116L138.587 128.274Z" fill="url(#paint5_linear_2600_14280)"/>
            <path d="M137.136 131.894L52.5191 180.872L40.0869 168.44L114.265 118.596L137.136 131.894Z" stroke="url(#paint6_linear_2600_14280)"/>
            <path d="M139.049 135.206L54.324 183.998L58.8744 200.981L139.13 161.662L139.049 135.206Z" stroke="url(#paint7_linear_2600_14280)"/>
            <path d="M142.412 135.206L227.137 183.998L222.587 200.98L142.332 161.662L142.412 135.206Z" stroke="url(#paint8_linear_2600_14280)"/>
            <path d="M144.325 131.894L228.942 180.872L241.374 168.44L167.196 118.596L144.325 131.894Z" stroke="url(#paint9_linear_2600_14280)"/>
            <path d="M142.413 128.274L142.305 30.5047L159.287 25.9541L165.364 115.116L142.413 128.274Z" stroke="url(#paint10_linear_2600_14280)"/>
            <path d="M138.587 128.274L138.695 30.5047L121.712 25.9541L115.636 115.116L138.587 128.274Z" stroke="url(#paint11_linear_2600_14280)"/>
        </g>

        <defs>
            <linearGradient id="paint0_linear_2600_14280" x1="140.731" y1="25.9541" x2="140.731" y2="200.981" gradientUnits="userSpaceOnUse">
                <stop stop-color="#33E6BF"/>
                <stop offset="1" stop-color="#0439C7"/>
            </linearGradient>
            <linearGradient id="paint1_linear_2600_14280" x1="140.731" y1="25.9541" x2="140.731" y2="200.981" gradientUnits="userSpaceOnUse">
                <stop stop-color="#33E6BF"/>
                <stop offset="1" stop-color="#0439C7"/>
            </linearGradient>
            <linearGradient id="paint2_linear_2600_14280" x1="140.731" y1="25.9541" x2="140.731" y2="200.981" gradientUnits="userSpaceOnUse">
                <stop stop-color="#33E6BF"/>
                <stop offset="1" stop-color="#0439C7"/>
            </linearGradient>
            <linearGradient id="paint3_linear_2600_14280" x1="140.731" y1="25.9541" x2="140.731" y2="200.981" gradientUnits="userSpaceOnUse">
                <stop stop-color="#33E6BF"/>
                <stop offset="1" stop-color="#0439C7"/>
            </linearGradient>
            <linearGradient id="paint4_linear_2600_14280" x1="140.731" y1="25.9541" x2="140.731" y2="200.981" gradientUnits="userSpaceOnUse">
                <stop stop-color="#33E6BF"/>
                <stop offset="1" stop-color="#0439C7"/>
            </linearGradient>
            <linearGradient id="paint5_linear_2600_14280" x1="140.731" y1="25.9541" x2="140.731" y2="200.981" gradientUnits="userSpaceOnUse">
                <stop stop-color="#33E6BF"/>
                <stop offset="1" stop-color="#0439C7"/>
            </linearGradient>
            <linearGradient id="paint6_linear_2600_14280" x1="140.731" y1="25.9541" x2="140.731" y2="200.981" gradientUnits="userSpaceOnUse">
                <stop stop-color="#33E6BF"/>
                <stop offset="1" stop-color="#0439C7"/>
            </linearGradient>
            <linearGradient id="paint7_linear_2600_14280" x1="140.731" y1="25.9541" x2="140.731" y2="200.981" gradientUnits="userSpaceOnUse">
                <stop stop-color="#33E6BF"/>
                <stop offset="1" stop-color="#0439C7"/>
            </linearGradient>
            <linearGradient id="paint8_linear_2600_14280" x1="140.731" y1="25.9541" x2="140.731" y2="200.981" gradientUnits="userSpaceOnUse">
                <stop stop-color="#33E6BF"/>
                <stop offset="1" stop-color="#0439C7"/>
            </linearGradient>
            <linearGradient id="paint9_linear_2600_14280" x1="140.731" y1="25.9541" x2="140.731" y2="200.981" gradientUnits="userSpaceOnUse">
                <stop stop-color="#33E6BF"/>
                <stop offset="1" stop-color="#0439C7"/>
            </linearGradient>
            <linearGradient id="paint10_linear_2600_14280" x1="140.731" y1="25.9541" x2="140.731" y2="200.981" gradientUnits="userSpaceOnUse">
                <stop stop-color="#33E6BF"/>
                <stop offset="1" stop-color="#0439C7"/>
            </linearGradient>
        </defs>
    </symbol>
</svg>


