<svg width="500" height="500" viewBox="0 10 490 490" fill="none" xmlns="http://www.w3.org/2000/svg">
    <path fill="black" d="M 518.676 -0.796 L 1.169 1.234 L 0.153 -0.198 L -1.279 502.384 L 502.018 503.816 L 502.018 324.834 L 476.245 324.834 L 476.245 356.334 L 288.672 356.334 L 288.672 140.124 L 262.898 140.124 L 262.898 323.402 L 229.966 324.834 L 231.397 354.187 L 169.112 356.334 L 169.828 325.549 L 106.11 326.265 L 106.11 355.618 L 44.54 355.618 C 44.54 355.618 43.824 326.265 44.54 326.265 C 45.256 326.265 13.039 326.265 13.039 326.265 L 13.039 140.124 L 75.325 140.124 L 500.586 1.234 L 75.325 140.124 L 75.325 294.765 L 107.542 294.049 L 106.826 201.694 L 169.112 201.694 L 169.828 294.765 L 200.612 295.481 L 199.897 140.124 L 476.961 140.84 L 476.245 171.625 L 351.673 170.909 L 351.673 232.479 L 444.744 233.195 L 444.744 263.264 L 351.673 263.98 L 350.957 324.834 L 503.45 324.834 L 499.154 1.95 L 75.325 140.124 L 518.676 -0.796 Z"></path>
</svg>
    