<svg width="138" height="138" viewBox="0 0 138 138" fill="none" xmlns="http://www.w3.org/2000/svg">
<g opacity="0.6">
<path d="M12.9375 107.813V116.438H8.625V107.813H12.9375ZM43.125 94.875H47.4375V103.5H43.125V107.813H47.4375V116.438H43.125V120.75H47.4375V129.375H43.125V133.688H12.9375V129.375H17.25V120.75H12.9375V116.438H17.25V107.813H12.9375V103.5H17.25V94.875H12.9375V90.5625H43.125V94.875ZM21.5625 103.5H30.1875V94.875H21.5625V103.5ZM21.5625 116.438H30.1875V107.813H21.5625V116.438ZM30.1875 129.375V120.75H21.5625V129.375H30.1875ZM8.625 94.875V103.5H12.9375V94.875H8.625ZM8.625 120.75V129.375H12.9375V120.75H8.625ZM51.75 107.813V116.438H56.0625V107.813H51.75ZM51.75 94.875V103.5H56.0625V94.875H51.75ZM51.75 81.9375V90.5625H56.0625V81.9375H51.75ZM51.75 120.75V129.375H56.0625V120.75H51.75ZM129.375 116.438V120.75H133.688V129.375H129.375V133.688H99.1875V129.375H94.875V120.75H99.1875V116.438H94.875V107.813H99.1875V103.5H129.375V107.813H133.688V116.438H129.375ZM116.438 107.813V116.438H120.75V107.813H116.438ZM103.5 116.438H112.125V107.813H103.5V116.438ZM112.125 129.375V120.75H103.5V129.375H112.125ZM120.75 129.375V120.75H116.438V129.375H120.75ZM81.9375 43.125H86.25V38.8125H81.9375V43.125ZM60.375 12.9375H56.0625V17.25H60.375V12.9375ZM86.25 51.75H77.625V56.0625H86.25V51.75ZM94.875 64.6875H90.5625V69H81.9375V73.3125H73.3125V77.625H86.25V81.9375H90.5625V90.5625H86.25V94.875H90.5625V103.5H86.25V107.813H90.5625V116.438H86.25V120.75H90.5625V129.375H86.25V133.688H56.0625V129.375H64.6875V120.75H56.0625V116.438H64.6875V107.813H56.0625V103.5H64.6875V94.875H56.0625V90.5625H64.6875V81.9375H56.0625V77.625H69V73.3125H60.375V69H51.75V64.6875H47.4375V60.375H43.125V47.4375H47.4375H56.0625V51.75H47.4375V56.0625H51.75V60.375H60.375V64.6875H64.6875V69H69V60.375H64.6875V56.0625H69V47.4375H60.375V43.125H56.0625V38.8125H51.75V17.25H56.0625V25.875H60.375V17.25H64.6875V12.9375H60.375V8.625H81.9375V12.9375H86.25V17.25H90.5625V38.8125H86.25V34.5H81.9375V38.8125H77.625V43.125H81.9375V47.4375H73.3125V56.0625H77.625V60.375H73.3125V69H77.625V64.6875H81.9375V60.375H90.5625V56.0625H94.875V51.75H86.25V47.4375H94.875H99.1875V60.375H94.875V64.6875ZM64.6875 34.5H69V38.8125H73.3125V34.5H77.625V30.1875H73.3125V34.5H69V21.5625H73.3125V25.875H77.625V21.5625H73.3125V17.25H69V21.5625H64.6875V34.5ZM69 90.5625H73.3125V81.9375H69V90.5625ZM69 103.5H73.3125V94.875H69V103.5ZM69 116.438H73.3125V107.813H69V116.438ZM73.3125 129.375V120.75H69V129.375H73.3125ZM64.6875 56.0625V51.75H56.0625V56.0625H64.6875Z" fill="#FE0000"/>
</g>
</svg>
