<svg width="167" height="167" viewBox="0 0 167 167" fill="none" xmlns="http://www.w3.org/2000/svg">
<g opacity="0.6">
<path d="M62.625 73.0625V67.8438H67.8438V52.1875H73.0625V67.8438H78.2813V73.0625H73.0625V78.2813H67.8438V73.0625H62.625ZM83.5 62.625H78.2813V67.8438H83.5V62.625ZM62.625 62.625H57.4063V67.8438H62.625V62.625ZM104.375 41.75V46.9688H109.594V41.75H114.813V36.5313H109.594V20.875H104.375V36.5313H99.1563V41.75H104.375ZM120.031 31.3125H114.813V36.5313H120.031V31.3125ZM99.1563 31.3125H93.9375V36.5313H99.1563V31.3125ZM57.4063 125.25H99.1563V120.031H57.4063V125.25ZM52.1875 130.469H57.4063V125.25H52.1875V130.469ZM46.9688 135.688H52.1875V130.469H46.9688V135.688ZM41.75 140.906H46.9688V135.688H41.75V140.906ZM99.1563 120.031H109.594V114.813H99.1563V120.031ZM109.594 114.813H120.031V109.594H109.594V114.813ZM120.031 109.594H130.469V104.375H120.031V109.594ZM130.469 104.375H140.906V99.1563H130.469V104.375ZM140.906 88.7188V83.5H130.469V88.7188H120.031V93.9375H109.594V99.1563H93.9375V104.375H88.7188V109.594H57.4063V104.375H88.7188V99.1563V93.9375H41.75V99.1563H36.5313V104.375H31.3125V109.594H26.0938V114.813H20.875V125.25V130.469H26.0938V135.688H31.3125V140.906H36.5313V135.688H41.75V130.469H46.9688V125.25H52.1875V120.031H57.4063V114.813H99.1563V109.594H109.594V104.375H120.031V99.1563H130.469V93.9375H140.906V99.1563H146.125V88.7188H140.906ZM62.625 46.9688H78.2813V41.75H83.5V26.0938H78.2813V20.875H62.625V26.0938H73.0625V31.3125H67.8438V36.5313H62.625V26.0938H57.4063V41.75H62.625V46.9688ZM99.1563 78.2813H114.813V73.0625H120.031V57.4063H114.813V52.1875H99.1563V57.4063H109.594V62.625H104.375V67.8438H99.1563V57.4063H93.9375V73.0625H99.1563V78.2813Z" fill="#FE0000"/>
</g>
</svg>
