<svg width="69" height="69" viewBox="0 0 69 69" fill="none" xmlns="http://www.w3.org/2000/svg">
<g opacity="0.6">
<path d="M22.5 45V40.5H10.5V27H6V45H9.00002H10.5H17.9999V64.5V69H22.5H27V64.5H22.5V45Z" fill="#33E6BF"/>
<path d="M31.5 59.9999H27V64.4998H31.5V59.9999Z" fill="#33E6BF"/>
<path d="M36 55.5H31.5V60H36V55.5Z" fill="#33E6BF"/>
<path d="M40.5 51H36V55.5H40.5V51Z" fill="#33E6BF"/>
<path d="M45 46.4999H40.5V50.9998H45V46.4999Z" fill="#33E6BF"/>
<path d="M49.5 42H45V46.5H49.5V42Z" fill="#33E6BF"/>
<path d="M45 22.5001H40.5V27.0001H45V22.5001Z" fill="#33E6BF"/>
<path d="M49.5 31.5001H40.5001V27.0001H36V31.5001H31.5V36H36H40.5001H49.5V42.0001H54.0001V36V31.5001H49.5Z" fill="#33E6BF"/>
<path d="M49.5 18H45V22.5H49.5V18Z" fill="#33E6BF"/>
<path d="M15 13.5H10.5V27H15V13.5Z" fill="#33E6BF"/>
<path d="M54 13.5H49.5V18H54V13.5Z" fill="#33E6BF"/>
<path d="M58.5 9H54V13.5H58.5V9Z" fill="#33E6BF"/>
<path d="M58.5001 0H19.5001H15V13.5H19.5001V4.49996H58.5001V9.00005H63V4.49996V0H58.5001Z" fill="#33E6BF"/>
</g>
</svg>
