<svg width="29" height="53" viewBox="0 0 29 53" fill="none" xmlns="http://www.w3.org/2000/svg">
<path d="M24.6036 3.14111C24.5996 3.65896 24.4674 4.15622 24.259 4.67448L24.2349 4.62071C23.5576 4.84791 22.8363 5.37222 22.2551 5.80963C21.8984 4.84022 21.4775 3.84856 20.5718 2.92321C20.9525 4.11214 21.6299 5.35645 21.8904 6.48069C20.6319 7.74562 19.6501 9.33437 19.8745 10.9041C19.582 11.384 19.3575 11.8658 19.2092 12.3457L19.1691 12.3663V12.4929C19.0048 13.0944 18.9767 13.7008 19.145 14.2991C19.137 18.8139 17.9707 22.5169 16.1752 25.7873C7.08163 28.1846 -0.789502 28.7829 14.1514 29.0105C9.34208 35.9112 2.49282 41.5866 0 50.6461C0.40879 53.2091 2.12819 53.1081 4.68914 52.9092C4.67712 50.201 4.80129 47.125 6.52061 43.6932C7.83916 34.6859 21.3373 37.863 16.0791 29.0388C17.3015 29.0546 18.6159 29.0752 20.0988 29.0833C20.1028 27.8939 20.1229 26.7224 20.2231 25.6422C20.9445 25.396 21.7983 25.1131 23.0807 24.6886C22.2351 23.8279 21.6618 22.9341 21.2931 22.037C21.9263 21.1481 22.9044 20.6015 24.4433 20.6096C22.5918 20.6015 21.5537 20.5651 20.9405 20.8558C20.5557 19.0779 20.8203 17.2429 21.2651 15.4064C21.8302 15.0999 22.4193 14.7919 22.9042 14.481C28.3788 15.2608 28.3229 13.1178 27.0805 10.3863C28.7116 7.68903 28.9479 4.4311 29 0C28.9158 3.12048 28.4551 3.1694 24.6036 3.14111Z" fill="url(#paint0_radial_2126_1256)"/>
<defs>
<radialGradient id="paint0_radial_2126_1256" cx="0" cy="0" r="1" gradientUnits="userSpaceOnUse" gradientTransform="translate(14.5 26.5) rotate(90) scale(26.5 14.5)">
<stop offset="0.41" stop-color="#FE0000"/>
<stop offset="0.725" stop-color="#33E6BF"/>
</radialGradient>
</defs>
</svg>
